<?xml version="1.0" standalone="no"?>
 <!DOCTYPE svg PUBLIC "-//W3C//DTD SVG 1.1//EN" 
 "http://www.w3.org/Graphics/SVG/1.1/DTD/svg11.dtd"> 
<svg
  xmlns:svg="http://www.w3.org/2000/svg"
  xmlns="http://www.w3.org/2000/svg"
  xmlns:xlink="http://www.w3.org/1999/xlink"
  version="1.1"
  width="297.0022mm" height="210.0072mm" viewBox="0.0000 0.0000 297.0022 210.0072">
<title>SVG Image created as HT7333-Edge_Cuts.svg date 2025/05/16 15:47:16 </title>
  <desc>Image generated by PCBNEW </desc>
<g style="fill:#000000; fill-opacity:1.0000;stroke:#000000; stroke-opacity:1.0000;
stroke-linecap:round; stroke-linejoin:round;"
 transform="translate(0 0) scale(1 1)">
</g>
<g style="fill:none; 
stroke:#D0D2CD; stroke-width:0.0500; stroke-opacity:1; 
stroke-linecap:round; stroke-linejoin:round;">
<path d="M114.0000 74.0000
L114.0000 62.0000
" />
<path d="M117.0000 59.0000 A3.0000 3.0000 0.0 0 0 114.0000 62.0000" />
<path d="M125.0000 77.0000
L117.0000 77.0000
" />
<path d="M128.0000 62.0000
L128.0000 74.0000
" />
<path d="M114.0000 74.0000 A3.0000 3.0000 0.0 0 0 117.0000 77.0000" />
<path d="M125.0000 77.0000 A3.0000 3.0000 0.0 0 0 128.0000 74.0000" />
<path d="M117.0000 59.0000
L125.0000 59.0000
" />
<path d="M128.0000 62.0000 A3.0000 3.0000 0.0 0 0 125.0000 59.0000" />
<path style="fill:none; 
stroke:#4D7FC4; stroke-width:0.2000; stroke-opacity:1; 
stroke-linecap:round; stroke-linejoin:round;fill:none"
d="M 114.0000,59.0000
128.0000,59.0000
128.0000,77.0000
114.0000,77.0000
Z" /> 
<path style="fill:#4D7FC4; fill-opacity:1.0000; stroke:none;fill-rule:evenodd;"
d="M 121.1500,61.6500
122.8500,61.6500
122.8500,63.3500
121.1500,63.3500
Z" /> 
</g>
<g style="fill:#4D7FC4; fill-opacity:1.0000; stroke:none;">
<circle cx="119.4600" cy="62.5000" r="0.8500" /> 
<circle cx="116.9200" cy="62.5000" r="0.8500" /> 
<path style="fill:#4D7FC4; fill-opacity:1.0000; stroke:none;fill-rule:evenodd;"
d="M 116.3500,71.2500
116.2543,71.2310
116.1732,71.1768
116.1190,71.0957
116.1000,71.0000
116.1000,69.0000
116.1190,68.9043
116.1732,68.8232
116.2543,68.7690
116.3500,68.7500
117.6500,68.7500
117.7457,68.7690
117.8268,68.8232
117.8810,68.9043
117.9000,69.0000
117.9000,71.0000
117.8810,71.0957
117.8268,71.1768
117.7457,71.2310
117.6500,71.2500
Z" /> 
<path style="fill:#4D7FC4; fill-opacity:1.0000; stroke:none;fill-rule:evenodd;"
d="M 116.3500,67.2500
116.2543,67.2310
116.1732,67.1768
116.1190,67.0957
116.1000,67.0000
116.1000,65.0000
116.1190,64.9043
116.1732,64.8232
116.2543,64.7690
116.3500,64.7500
117.6500,64.7500
117.7457,64.7690
117.8268,64.8232
117.8810,64.9043
117.9000,65.0000
117.9000,67.0000
117.8810,67.0957
117.8268,67.1768
117.7457,67.2310
117.6500,67.2500
Z" /> 
<path style="fill:#4D7FC4; fill-opacity:1.0000; stroke:none;fill-rule:evenodd;"
d="M 121.7000,68.9500
121.6043,68.9310
121.5232,68.8768
121.4690,68.7957
121.4500,68.7000
121.4500,68.1000
121.4690,68.0043
121.5232,67.9232
121.6043,67.8690
121.7000,67.8500
122.3000,67.8500
122.3957,67.8690
122.4768,67.9232
122.5310,68.0043
122.5500,68.1000
122.5500,68.7000
122.5310,68.7957
122.4768,68.8768
122.3957,68.9310
122.3000,68.9500
Z" /> 
<path style="fill:#4D7FC4; fill-opacity:1.0000; stroke:none;fill-rule:evenodd;"
d="M 121.7000,66.1500
121.6043,66.1310
121.5232,66.0768
121.4690,65.9957
121.4500,65.9000
121.4500,65.3000
121.4690,65.2043
121.5232,65.1232
121.6043,65.0690
121.7000,65.0500
122.3000,65.0500
122.3957,65.0690
122.4768,65.1232
122.5310,65.2043
122.5500,65.3000
122.5500,65.9000
122.5310,65.9957
122.4768,66.0768
122.3957,66.1310
122.3000,66.1500
Z" /> 
</g>
<g style="fill:none; 
stroke:#4D7FC4; stroke-width:1.5000; stroke-opacity:1; 
stroke-linecap:round; stroke-linejoin:round;">
<path d="M116.9200 62.5000
L116.9200 65.9200
" />
<path d="M116.9200 65.9200
L117.0000 66.0000
" />
<path d="M119.4600 62.5000
L119.4600 67.5400
" />
<path d="M122.0000 68.4000
L120.3200 68.4000
" />
<path d="M120.3200 68.4000
L119.4600 67.5400
" />
<path d="M119.4600 67.5400
L117.0000 70.0000
" />
<path d="M122.0000 62.5000
L122.0000 65.6000
" />
<path style="fill:#4D7FC4; fill-opacity:1.0000; stroke:none;fill-rule:evenodd;"
d="M 126.4648,59.6160
126.4833,59.6262
126.4951,59.6336
126.7398,59.8072
126.7507,59.8159
126.9744,60.0158
126.9842,60.0256
127.1841,60.2493
127.1928,60.2602
127.3664,60.5049
127.3738,60.5167
127.3840,60.5352
127.3995,60.5952
127.3995,75.4048
127.3840,75.4648
127.3738,75.4833
127.3664,75.4951
127.1928,75.7398
127.1841,75.7507
126.9842,75.9744
126.9744,75.9842
126.7507,76.1841
126.7398,76.1928
126.4951,76.3664
126.4833,76.3738
126.4648,76.3840
126.4048,76.3995
115.5952,76.3995
115.5352,76.3840
115.5167,76.3738
115.5049,76.3664
115.2602,76.1928
115.2493,76.1841
115.0256,75.9842
115.0158,75.9744
114.8159,75.7507
114.8072,75.7398
114.6336,75.4951
114.6262,75.4833
114.6160,75.4648
114.6005,75.4048
114.6005,62.3937
115.5695,62.3937
115.5695,62.6063
115.6028,62.8162
115.6634,63.0030
115.6695,63.0413
115.6695,64.6476
115.6632,64.6866
115.6100,64.8472
115.6100,64.8472
115.5995,64.9500
115.5995,67.0500
115.5995,67.0500
115.6100,67.1528
115.6100,67.1528
115.6652,67.3193
115.6652,67.3193
115.7573,67.4687
115.8813,67.5927
116.0307,67.6848
116.1972,67.7400
116.3000,67.7505
117.7000,67.7505
117.8028,67.7400
117.9693,67.6848
118.1187,67.5927
118.2427,67.4687
118.3348,67.3193
118.3900,67.1528
118.4005,67.0500
118.4005,64.9500
118.3900,64.8472
118.3348,64.6807
118.2427,64.5313
118.2068,64.4955
118.1733,64.4341
118.1705,64.4078
118.1705,63.0413
118.1766,63.0030
118.1947,62.9472
118.2372,62.8162
118.2705,62.6063
118.2705,62.3937
118.2372,62.1838
118.1716,61.9816
118.0751,61.7922
117.9501,61.6202
117.9320,61.6021
120.6495,61.6021
120.6495,63.3979
120.6495,63.3979
120.6559,63.4575
120.7062,63.5923
120.7248,63.6171
120.7492,63.6826
120.7495,63.6914
120.7495,65.6984
120.7803,65.8928
120.8411,66.0800
120.9305,66.2554
121.0462,66.4146
121.1854,66.5538
121.3446,66.6695
121.4275,66.7117
121.5200,66.7589
121.5200,66.7589
121.5200,66.7589
121.6203,66.7915
121.7072,66.8197
121.9016,66.8505
121.9016,66.8505
122.0984,66.8505
122.2928,66.8197
122.4800,66.7589
122.6554,66.6695
122.8146,66.5538
122.9538,66.4146
123.0695,66.2554
123.1589,66.0800
123.2197,65.8928
123.2505,65.6984
123.2505,63.6914
123.2702,63.6244
123.2752,63.6171
123.2938,63.5923
123.3441,63.4575
123.3505,63.3979
123.3505,61.6021
123.3441,61.5425
123.2938,61.4077
123.2938,61.4077
123.2938,61.4077
123.2075,61.2925
123.2075,61.2925
123.0923,61.2062
123.0923,61.2062
122.9575,61.1559
122.9575,61.1559
122.8979,61.1495
122.8979,61.1495
122.8979,61.1495
122.8979,61.1495
121.1021,61.1495
121.1021,61.1495
121.0425,61.1559
120.9077,61.2062
120.9077,61.2062
120.7925,61.2925
120.7925,61.2925
120.7062,61.4077
120.7062,61.4077
120.6559,61.5425
120.6495,61.6021
120.6495,61.6021
120.6495,61.6021
117.9320,61.6021
117.7998,61.4699
117.7998,61.4699
117.6278,61.3450
117.4384,61.2484
117.4384,61.2484
117.4384,61.2484
117.2362,61.1828
117.2362,61.1828
117.2362,61.1828
117.0750,61.1572
117.0263,61.1495
116.8137,61.1495
116.7650,61.1572
116.6038,61.1828
116.4016,61.2484
116.2122,61.3450
116.0402,61.4699
115.8899,61.6202
115.7650,61.7922
115.6684,61.9816
115.6028,62.1838
115.5695,62.3937
114.6005,62.3937
114.6005,60.5952
114.6043,60.5805
114.6035,60.5682
114.6160,60.5352
114.6262,60.5167
114.6336,60.5049
114.8072,60.2602
114.8159,60.2494
115.0158,60.0256
115.0256,60.0158
115.2494,59.8159
115.2602,59.8072
115.5049,59.6336
115.5167,59.6262
115.5352,59.6160
115.5352,59.6160
115.5952,59.6005
126.4048,59.6005
Z" /> 
<path style="fill:#02FFEE; fill-opacity:0.4000; stroke:none;fill-rule:evenodd;"
d="M 121.1500,61.6500
122.8500,61.6500
122.8500,63.3500
121.1500,63.3500
Z" /> 
</g>
<g style="fill:#02FFEE; fill-opacity:0.4000; stroke:none;">
<circle cx="119.4600" cy="62.5000" r="0.8500" /> 
<circle cx="116.9200" cy="62.5000" r="0.8500" /> 
<path style="fill:#02FFEE; fill-opacity:0.4000; stroke:none;fill-rule:evenodd;"
d="M 116.3500,71.2500
116.2543,71.2310
116.1732,71.1768
116.1190,71.0957
116.1000,71.0000
116.1000,69.0000
116.1190,68.9043
116.1732,68.8232
116.2543,68.7690
116.3500,68.7500
117.6500,68.7500
117.7457,68.7690
117.8268,68.8232
117.8810,68.9043
117.9000,69.0000
117.9000,71.0000
117.8810,71.0957
117.8268,71.1768
117.7457,71.2310
117.6500,71.2500
Z" /> 
<path style="fill:#02FFEE; fill-opacity:0.4000; stroke:none;fill-rule:evenodd;"
d="M 116.3500,67.2500
116.2543,67.2310
116.1732,67.1768
116.1190,67.0957
116.1000,67.0000
116.1000,65.0000
116.1190,64.9043
116.1732,64.8232
116.2543,64.7690
116.3500,64.7500
117.6500,64.7500
117.7457,64.7690
117.8268,64.8232
117.8810,64.9043
117.9000,65.0000
117.9000,67.0000
117.8810,67.0957
117.8268,67.1768
117.7457,67.2310
117.6500,67.2500
Z" /> 
<path style="fill:#02FFEE; fill-opacity:0.4000; stroke:none;fill-rule:evenodd;"
d="M 121.7000,68.9500
121.6043,68.9310
121.5232,68.8768
121.4690,68.7957
121.4500,68.7000
121.4500,68.1000
121.4690,68.0043
121.5232,67.9232
121.6043,67.8690
121.7000,67.8500
122.3000,67.8500
122.3957,67.8690
122.4768,67.9232
122.5310,68.0043
122.5500,68.1000
122.5500,68.7000
122.5310,68.7957
122.4768,68.8768
122.3957,68.9310
122.3000,68.9500
Z" /> 
<path style="fill:#02FFEE; fill-opacity:0.4000; stroke:none;fill-rule:evenodd;"
d="M 121.7000,66.1500
121.6043,66.1310
121.5232,66.0768
121.4690,65.9957
121.4500,65.9000
121.4500,65.3000
121.4690,65.2043
121.5232,65.1232
121.6043,65.0690
121.7000,65.0500
122.3000,65.0500
122.3957,65.0690
122.4768,65.1232
122.5310,65.2043
122.5500,65.3000
122.5500,65.9000
122.5310,65.9957
122.4768,66.0768
122.3957,66.1310
122.3000,66.1500
Z" /> 
<path style="fill:#00C2C2; fill-opacity:0.9020; stroke:none;fill-rule:evenodd;"
d="M 116.3500,71.2500
116.2543,71.2310
116.1732,71.1768
116.1190,71.0957
116.1000,71.0000
116.1000,69.0000
116.1190,68.9043
116.1732,68.8232
116.2543,68.7690
116.3500,68.7500
117.6500,68.7500
117.7457,68.7690
117.8268,68.8232
117.8810,68.9043
117.9000,69.0000
117.9000,71.0000
117.8810,71.0957
117.8268,71.1768
117.7457,71.2310
117.6500,71.2500
Z" /> 
<path style="fill:#00C2C2; fill-opacity:0.9020; stroke:none;fill-rule:evenodd;"
d="M 116.3500,67.2500
116.2543,67.2310
116.1732,67.1768
116.1190,67.0957
116.1000,67.0000
116.1000,65.0000
116.1190,64.9043
116.1732,64.8232
116.2543,64.7690
116.3500,64.7500
117.6500,64.7500
117.7457,64.7690
117.8268,64.8232
117.8810,64.9043
117.9000,65.0000
117.9000,67.0000
117.8810,67.0957
117.8268,67.1768
117.7457,67.2310
117.6500,67.2500
Z" /> 
<path style="fill:#00C2C2; fill-opacity:0.9020; stroke:none;fill-rule:evenodd;"
d="M 121.7000,68.9500
121.6043,68.9310
121.5232,68.8768
121.4690,68.7957
121.4500,68.7000
121.4500,68.1000
121.4690,68.0043
121.5232,67.9232
121.6043,67.8690
121.7000,67.8500
122.3000,67.8500
122.3957,67.8690
122.4768,67.9232
122.5310,68.0043
122.5500,68.1000
122.5500,68.7000
122.5310,68.7957
122.4768,68.8768
122.3957,68.9310
122.3000,68.9500
Z" /> 
<path style="fill:#00C2C2; fill-opacity:0.9020; stroke:none;fill-rule:evenodd;"
d="M 121.7000,66.1500
121.6043,66.1310
121.5232,66.0768
121.4690,65.9957
121.4500,65.9000
121.4500,65.3000
121.4690,65.2043
121.5232,65.1232
121.6043,65.0690
121.7000,65.0500
122.3000,65.0500
122.3957,65.0690
122.4768,65.1232
122.5310,65.2043
122.5500,65.3000
122.5500,65.9000
122.5310,65.9957
122.4768,66.0768
122.3957,66.1310
122.3000,66.1500
Z" /> 
</g>
<g style="fill:none; 
stroke:#E8B2A7; stroke-width:0.1200; stroke-opacity:1; 
stroke-linecap:round; stroke-linejoin:round;">
<g transform="rotate(-90.000000 117.0000 68.0000)">
<text x="117.0000" y="68.3500"
transform="scale(-1 1) translate(-234.000000 0)"
textLength="1.5867" font-size="0.9333" lengthAdjust="spacingAndGlyphs"
text-anchor="middle" opacity="0" stroke-opacity="0">D1</text>
</g>
<g class="stroked-text"><desc>D1</desc>
<path d="M117.3176 67.4833
L116.6176 67.4833
" />
<path d="M116.6176 67.4833
L116.6176 67.6500
" />
<path d="M116.6176 67.6500
L116.6509 67.7500
" />
<path d="M116.6509 67.7500
L116.7176 67.8167
" />
<path d="M116.7176 67.8167
L116.7843 67.8500
" />
<path d="M116.7843 67.8500
L116.9176 67.8833
" />
<path d="M116.9176 67.8833
L117.0176 67.8833
" />
<path d="M117.0176 67.8833
L117.1509 67.8500
" />
<path d="M117.1509 67.8500
L117.2176 67.8167
" />
<path d="M117.2176 67.8167
L117.2843 67.7500
" />
<path d="M117.2843 67.7500
L117.3176 67.6500
" />
<path d="M117.3176 67.6500
L117.3176 67.4833
" />
<path d="M117.3176 68.5500
L117.3176 68.1500
" />
<path d="M117.3176 68.3500
L116.6176 68.3500
" />
<path d="M116.6176 68.3500
L116.7176 68.2833
" />
<path d="M116.7176 68.2833
L116.7843 68.2167
" />
<path d="M116.7843 68.2167
L116.8176 68.1500
" />
</g><g transform="rotate(-90.000000 120.0000 68.0000)">
<text x="120.0000" y="68.3500"
transform="scale(-1 1) translate(-240.000000 0)"
textLength="5.4533" font-size="0.9333" lengthAdjust="spacingAndGlyphs"
text-anchor="middle" opacity="0" stroke-opacity="0">SMAJ12CA</text>
</g>
<g class="stroked-text"><desc>SMAJ12CA</desc>
<path d="M120.2843 65.5167
L120.3176 65.6167
" />
<path d="M120.3176 65.6167
L120.3176 65.7833
" />
<path d="M120.3176 65.7833
L120.2843 65.8500
" />
<path d="M120.2843 65.8500
L120.2509 65.8833
" />
<path d="M120.2509 65.8833
L120.1843 65.9167
" />
<path d="M120.1843 65.9167
L120.1176 65.9167
" />
<path d="M120.1176 65.9167
L120.0509 65.8833
" />
<path d="M120.0509 65.8833
L120.0176 65.8500
" />
<path d="M120.0176 65.8500
L119.9843 65.7833
" />
<path d="M119.9843 65.7833
L119.9509 65.6500
" />
<path d="M119.9509 65.6500
L119.9176 65.5833
" />
<path d="M119.9176 65.5833
L119.8843 65.5500
" />
<path d="M119.8843 65.5500
L119.8176 65.5167
" />
<path d="M119.8176 65.5167
L119.7509 65.5167
" />
<path d="M119.7509 65.5167
L119.6843 65.5500
" />
<path d="M119.6843 65.5500
L119.6509 65.5833
" />
<path d="M119.6509 65.5833
L119.6176 65.6500
" />
<path d="M119.6176 65.6500
L119.6176 65.8167
" />
<path d="M119.6176 65.8167
L119.6509 65.9167
" />
<path d="M120.3176 66.2167
L119.6176 66.2167
" />
<path d="M119.6176 66.2167
L120.1176 66.4500
" />
<path d="M120.1176 66.4500
L119.6176 66.6833
" />
<path d="M119.6176 66.6833
L120.3176 66.6833
" />
<path d="M120.1176 66.9833
L120.1176 67.3167
" />
<path d="M120.3176 66.9167
L119.6176 67.1500
" />
<path d="M119.6176 67.1500
L120.3176 67.3833
" />
<path d="M119.6176 67.8167
L120.1176 67.8167
" />
<path d="M120.1176 67.8167
L120.2176 67.7833
" />
<path d="M120.2176 67.7833
L120.2843 67.7167
" />
<path d="M120.2843 67.7167
L120.3176 67.6167
" />
<path d="M120.3176 67.6167
L120.3176 67.5500
" />
<path d="M120.3176 68.5167
L120.3176 68.1167
" />
<path d="M120.3176 68.3167
L119.6176 68.3167
" />
<path d="M119.6176 68.3167
L119.7176 68.2500
" />
<path d="M119.7176 68.2500
L119.7843 68.1833
" />
<path d="M119.7843 68.1833
L119.8176 68.1167
" />
<path d="M119.6843 68.7833
L119.6509 68.8167
" />
<path d="M119.6509 68.8167
L119.6176 68.8833
" />
<path d="M119.6176 68.8833
L119.6176 69.0500
" />
<path d="M119.6176 69.0500
L119.6509 69.1167
" />
<path d="M119.6509 69.1167
L119.6843 69.1500
" />
<path d="M119.6843 69.1500
L119.7509 69.1833
" />
<path d="M119.7509 69.1833
L119.8176 69.1833
" />
<path d="M119.8176 69.1833
L119.9176 69.1500
" />
<path d="M119.9176 69.1500
L120.3176 68.7500
" />
<path d="M120.3176 68.7500
L120.3176 69.1833
" />
<path d="M120.2509 69.8833
L120.2843 69.8500
" />
<path d="M120.2843 69.8500
L120.3176 69.7500
" />
<path d="M120.3176 69.7500
L120.3176 69.6833
" />
<path d="M120.3176 69.6833
L120.2843 69.5833
" />
<path d="M120.2843 69.5833
L120.2176 69.5167
" />
<path d="M120.2176 69.5167
L120.1509 69.4833
" />
<path d="M120.1509 69.4833
L120.0176 69.4500
" />
<path d="M120.0176 69.4500
L119.9176 69.4500
" />
<path d="M119.9176 69.4500
L119.7843 69.4833
" />
<path d="M119.7843 69.4833
L119.7176 69.5167
" />
<path d="M119.7176 69.5167
L119.6509 69.5833
" />
<path d="M119.6509 69.5833
L119.6176 69.6833
" />
<path d="M119.6176 69.6833
L119.6176 69.7500
" />
<path d="M119.6176 69.7500
L119.6509 69.8500
" />
<path d="M119.6509 69.8500
L119.6843 69.8833
" />
<path d="M120.1176 70.1500
L120.1176 70.4833
" />
<path d="M120.3176 70.0833
L119.6176 70.3167
" />
<path d="M119.6176 70.3167
L120.3176 70.5500
" />
</g><g transform="rotate(-90.000000 122.0000 67.0000)">
<text x="122.0000" y="67.3500"
transform="scale(-1 1) translate(-244.000000 0)"
textLength="1.5867" font-size="0.9333" lengthAdjust="spacingAndGlyphs"
text-anchor="middle" opacity="0" stroke-opacity="0">D2</text>
</g>
<g class="stroked-text"><desc>D2</desc>
<path d="M122.3176 66.4833
L121.6176 66.4833
" />
<path d="M121.6176 66.4833
L121.6176 66.6500
" />
<path d="M121.6176 66.6500
L121.6509 66.7500
" />
<path d="M121.6509 66.7500
L121.7176 66.8167
" />
<path d="M121.7176 66.8167
L121.7843 66.8500
" />
<path d="M121.7843 66.8500
L121.9176 66.8833
" />
<path d="M121.9176 66.8833
L122.0176 66.8833
" />
<path d="M122.0176 66.8833
L122.1509 66.8500
" />
<path d="M122.1509 66.8500
L122.2176 66.8167
" />
<path d="M122.2176 66.8167
L122.2843 66.7500
" />
<path d="M122.2843 66.7500
L122.3176 66.6500
" />
<path d="M122.3176 66.6500
L122.3176 66.4833
" />
<path d="M121.6843 67.1500
L121.6509 67.1833
" />
<path d="M121.6509 67.1833
L121.6176 67.2500
" />
<path d="M121.6176 67.2500
L121.6176 67.4167
" />
<path d="M121.6176 67.4167
L121.6509 67.4833
" />
<path d="M121.6509 67.4833
L121.6843 67.5167
" />
<path d="M121.6843 67.5167
L121.7509 67.5500
" />
<path d="M121.7509 67.5500
L121.8176 67.5500
" />
<path d="M121.8176 67.5500
L121.9176 67.5167
" />
<path d="M121.9176 67.5167
L122.3176 67.1167
" />
<path d="M122.3176 67.1167
L122.3176 67.5500
" />
</g><g transform="rotate(-90.000000 124.0000 67.0000)">
<text x="124.0000" y="67.3500"
transform="scale(-1 1) translate(-248.000000 0)"
textLength="5.2533" font-size="0.9333" lengthAdjust="spacingAndGlyphs"
text-anchor="middle" opacity="0" stroke-opacity="0">SMF3.3CA</text>
</g>
<g class="stroked-text"><desc>SMF3.3CA</desc>
<path d="M124.2843 64.6167
L124.3176 64.7167
" />
<path d="M124.3176 64.7167
L124.3176 64.8833
" />
<path d="M124.3176 64.8833
L124.2843 64.9500
" />
<path d="M124.2843 64.9500
L124.2509 64.9833
" />
<path d="M124.2509 64.9833
L124.1843 65.0167
" />
<path d="M124.1843 65.0167
L124.1176 65.0167
" />
<path d="M124.1176 65.0167
L124.0509 64.9833
" />
<path d="M124.0509 64.9833
L124.0176 64.9500
" />
<path d="M124.0176 64.9500
L123.9843 64.8833
" />
<path d="M123.9843 64.8833
L123.9509 64.7500
" />
<path d="M123.9509 64.7500
L123.9176 64.6833
" />
<path d="M123.9176 64.6833
L123.8843 64.6500
" />
<path d="M123.8843 64.6500
L123.8176 64.6167
" />
<path d="M123.8176 64.6167
L123.7509 64.6167
" />
<path d="M123.7509 64.6167
L123.6843 64.6500
" />
<path d="M123.6843 64.6500
L123.6509 64.6833
" />
<path d="M123.6509 64.6833
L123.6176 64.7500
" />
<path d="M123.6176 64.7500
L123.6176 64.9167
" />
<path d="M123.6176 64.9167
L123.6509 65.0167
" />
<path d="M124.3176 65.3167
L123.6176 65.3167
" />
<path d="M123.6176 65.3167
L124.1176 65.5500
" />
<path d="M124.1176 65.5500
L123.6176 65.7833
" />
<path d="M123.6176 65.7833
L124.3176 65.7833
" />
<path d="M123.9509 66.3500
L123.9509 66.1167
" />
<path d="M124.3176 66.1167
L123.6176 66.1167
" />
<path d="M123.6176 66.1167
L123.6176 66.4500
" />
<path d="M123.6176 66.6500
L123.6176 67.0833
" />
<path d="M123.6176 67.0833
L123.8843 66.8500
" />
<path d="M123.8843 66.8500
L123.8843 66.9500
" />
<path d="M123.8843 66.9500
L123.9176 67.0167
" />
<path d="M123.9176 67.0167
L123.9509 67.0500
" />
<path d="M123.9509 67.0500
L124.0176 67.0833
" />
<path d="M124.0176 67.0833
L124.1843 67.0833
" />
<path d="M124.1843 67.0833
L124.2509 67.0500
" />
<path d="M124.2509 67.0500
L124.2843 67.0167
" />
<path d="M124.2843 67.0167
L124.3176 66.9500
" />
<path d="M124.3176 66.9500
L124.3176 66.7500
" />
<path d="M124.3176 66.7500
L124.2843 66.6833
" />
<path d="M124.2843 66.6833
L124.2509 66.6500
" />
<path d="M124.2509 67.3833
L124.2843 67.4167
" />
<path d="M124.2843 67.4167
L124.3176 67.3833
" />
<path d="M124.3176 67.3833
L124.2843 67.3500
" />
<path d="M124.2843 67.3500
L124.2509 67.3833
" />
<path d="M124.2509 67.3833
L124.3176 67.3833
" />
<path d="M123.6176 67.6500
L123.6176 68.0833
" />
<path d="M123.6176 68.0833
L123.8843 67.8500
" />
<path d="M123.8843 67.8500
L123.8843 67.9500
" />
<path d="M123.8843 67.9500
L123.9176 68.0167
" />
<path d="M123.9176 68.0167
L123.9509 68.0500
" />
<path d="M123.9509 68.0500
L124.0176 68.0833
" />
<path d="M124.0176 68.0833
L124.1843 68.0833
" />
<path d="M124.1843 68.0833
L124.2509 68.0500
" />
<path d="M124.2509 68.0500
L124.2843 68.0167
" />
<path d="M124.2843 68.0167
L124.3176 67.9500
" />
<path d="M124.3176 67.9500
L124.3176 67.7500
" />
<path d="M124.3176 67.7500
L124.2843 67.6833
" />
<path d="M124.2843 67.6833
L124.2509 67.6500
" />
<path d="M124.2509 68.7833
L124.2843 68.7500
" />
<path d="M124.2843 68.7500
L124.3176 68.6500
" />
<path d="M124.3176 68.6500
L124.3176 68.5833
" />
<path d="M124.3176 68.5833
L124.2843 68.4833
" />
<path d="M124.2843 68.4833
L124.2176 68.4167
" />
<path d="M124.2176 68.4167
L124.1509 68.3833
" />
<path d="M124.1509 68.3833
L124.0176 68.3500
" />
<path d="M124.0176 68.3500
L123.9176 68.3500
" />
<path d="M123.9176 68.3500
L123.7843 68.3833
" />
<path d="M123.7843 68.3833
L123.7176 68.4167
" />
<path d="M123.7176 68.4167
L123.6509 68.4833
" />
<path d="M123.6509 68.4833
L123.6176 68.5833
" />
<path d="M123.6176 68.5833
L123.6176 68.6500
" />
<path d="M123.6176 68.6500
L123.6509 68.7500
" />
<path d="M123.6509 68.7500
L123.6843 68.7833
" />
<path d="M124.1176 69.0500
L124.1176 69.3833
" />
<path d="M124.3176 68.9833
L123.6176 69.2167
" />
<path d="M123.6176 69.2167
L124.3176 69.4500
" />
</g><path d="M115.2000 64.4000
L118.8000 64.4000
" />
<path d="M115.2000 71.6000
L115.2000 64.4000
" />
<path d="M118.8000 64.4000
L118.8000 71.6000
" />
<path d="M118.8000 71.6000
L115.2000 71.6000
" />
<path d="M120.8000 64.7000
L123.2000 64.7000
" />
<path d="M120.8000 69.3000
L120.8000 64.7000
" />
<path d="M123.2000 64.7000
L123.2000 69.3000
" />
<path d="M123.2000 69.3000
L120.8000 69.3000
" />
<path style="fill:#E8B2A7; fill-opacity:1.0000; 
stroke:#E8B2A7; stroke-width:0.1000; stroke-opacity:1; 
stroke-linecap:round; stroke-linejoin:round;fill-rule:evenodd;"
d="M 120.8000,68.4000
120.5000,68.4000
120.5000,67.6000
120.8000,67.6000
Z" /> 
<path style="fill:#E8B2A7; fill-opacity:1.0000; 
stroke:#E8B2A7; stroke-width:0.1000; stroke-opacity:1; 
stroke-linecap:round; stroke-linejoin:round;fill-rule:evenodd;"
d="M 123.5000,68.4000
123.2000,68.4000
123.2000,67.6000
123.5000,67.6000
Z" /> 
<path style="fill:#C83434; fill-opacity:1.0000; stroke:none;fill-rule:evenodd;"
d="M 114.9500,65.3500
114.9690,65.2543
115.0232,65.1732
115.1043,65.1190
115.2000,65.1000
115.8500,65.1000
115.9457,65.1190
116.0268,65.1732
116.0810,65.2543
116.1000,65.3500
116.1000,66.6500
116.0810,66.7457
116.0268,66.8268
115.9457,66.8810
115.8500,66.9000
115.2000,66.9000
115.1043,66.8810
115.0232,66.8268
114.9690,66.7457
114.9500,66.6500
Z" /> 
<path style="fill:#C83434; fill-opacity:1.0000; stroke:none;fill-rule:evenodd;"
d="M 117.9000,65.3500
117.9190,65.2543
117.9732,65.1732
118.0543,65.1190
118.1500,65.1000
118.8000,65.1000
118.8957,65.1190
118.9768,65.1732
119.0310,65.2543
119.0500,65.3500
119.0500,66.6500
119.0310,66.7457
118.9768,66.8268
118.8957,66.8810
118.8000,66.9000
118.1500,66.9000
118.0543,66.8810
117.9732,66.8268
117.9190,66.7457
117.9000,66.6500
Z" /> 
<path style="fill:#C83434; fill-opacity:1.0000; stroke:none;fill-rule:evenodd;"
d="M 125.0500,66.6500
125.0310,66.7457
124.9768,66.8268
124.8957,66.8810
124.8000,66.9000
124.1500,66.9000
124.0543,66.8810
123.9732,66.8268
123.9190,66.7457
123.9000,66.6500
123.9000,65.3500
123.9190,65.2543
123.9732,65.1732
124.0543,65.1190
124.1500,65.1000
124.8000,65.1000
124.8957,65.1190
124.9768,65.1732
125.0310,65.2543
125.0500,65.3500
Z" /> 
<path style="fill:#C83434; fill-opacity:1.0000; stroke:none;fill-rule:evenodd;"
d="M 122.1000,66.6500
122.0810,66.7457
122.0268,66.8268
121.9457,66.8810
121.8500,66.9000
121.2000,66.9000
121.1043,66.8810
121.0232,66.8268
120.9690,66.7457
120.9500,66.6500
120.9500,65.3500
120.9690,65.2543
121.0232,65.1732
121.1043,65.1190
121.2000,65.1000
121.8500,65.1000
121.9457,65.1190
122.0268,65.1732
122.0810,65.2543
122.1000,65.3500
Z" /> 
<path style="fill:#C83434; fill-opacity:1.0000; stroke:none;fill-rule:evenodd;"
d="M 121.3000,74.7250
121.2829,74.8111
121.2341,74.8841
121.1611,74.9329
121.0750,74.9500
120.2250,74.9500
120.1389,74.9329
120.0659,74.8841
120.0171,74.8111
120.0000,74.7250
120.0000,74.2750
120.0171,74.1889
120.0659,74.1159
120.1389,74.0671
120.2250,74.0500
121.0750,74.0500
121.1611,74.0671
121.2341,74.1159
121.2829,74.1889
121.3000,74.2750
Z" /> 
<path style="fill:#C83434; fill-opacity:1.0000; stroke:none;fill-rule:evenodd;"
d="M 121.3000,73.2250
121.2829,73.3111
121.2341,73.3841
121.1611,73.4329
121.0750,73.4500
119.8250,73.4500
119.7389,73.4329
119.6659,73.3841
119.6171,73.3111
119.6000,73.2250
119.6000,72.7750
119.6171,72.6889
119.6659,72.6159
119.7389,72.5671
119.8250,72.5500
121.0750,72.5500
121.1611,72.5671
121.2341,72.6159
121.2829,72.6889
121.3000,72.7750
Z" /> 
<path style="fill:#C83434; fill-opacity:1.0000; stroke:none;fill-rule:evenodd;"
d="M 119.5725,72.1335
119.6682,72.1525
119.7493,72.2067
119.8035,72.2878
119.8225,72.3835
119.8225,73.6165
119.8035,73.7122
119.7493,73.7933
119.6682,73.8475
119.5725,73.8665
116.9475,73.8665
116.8518,73.8475
116.7707,73.7933
116.7165,73.7122
116.6975,73.6165
116.6975,72.3835
116.7165,72.2878
116.7707,72.2067
116.8518,72.1525
116.9475,72.1335
Z" /> 
<path style="fill:#C83434; fill-opacity:1.0000; stroke:none;fill-rule:evenodd;"
d="M 121.3000,71.7250
121.2829,71.8111
121.2341,71.8841
121.1611,71.9329
121.0750,71.9500
120.2250,71.9500
120.1389,71.9329
120.0659,71.8841
120.0171,71.8111
120.0000,71.7250
120.0000,71.2750
120.0171,71.1889
120.0659,71.1159
120.1389,71.0671
120.2250,71.0500
121.0750,71.0500
121.1611,71.0671
121.2341,71.1159
121.2829,71.1889
121.3000,71.2750
Z" /> 
<path style="fill:#C83434; fill-opacity:1.0000; stroke:none;fill-rule:evenodd;"
d="M 114.9500,68.3500
114.9690,68.2543
115.0232,68.1732
115.1043,68.1190
115.2000,68.1000
115.8500,68.1000
115.9457,68.1190
116.0268,68.1732
116.0810,68.2543
116.1000,68.3500
116.1000,69.6500
116.0810,69.7457
116.0268,69.8268
115.9457,69.8810
115.8500,69.9000
115.2000,69.9000
115.1043,69.8810
115.0232,69.8268
114.9690,69.7457
114.9500,69.6500
Z" /> 
<path style="fill:#C83434; fill-opacity:1.0000; stroke:none;fill-rule:evenodd;"
d="M 117.9000,68.3500
117.9190,68.2543
117.9732,68.1732
118.0543,68.1190
118.1500,68.1000
118.8000,68.1000
118.8957,68.1190
118.9768,68.1732
119.0310,68.2543
119.0500,68.3500
119.0500,69.6500
119.0310,69.7457
118.9768,69.8268
118.8957,69.8810
118.8000,69.9000
118.1500,69.9000
118.0543,69.8810
117.9732,69.8268
117.9190,69.7457
117.9000,69.6500
Z" /> 
<path style="fill:#C83434; fill-opacity:1.0000; stroke:none;fill-rule:evenodd;"
d="M 125.0500,69.6500
125.0310,69.7457
124.9768,69.8268
124.8957,69.8810
124.8000,69.9000
124.1500,69.9000
124.0543,69.8810
123.9732,69.8268
123.9190,69.7457
123.9000,69.6500
123.9000,68.3500
123.9190,68.2543
123.9732,68.1732
124.0543,68.1190
124.1500,68.1000
124.8000,68.1000
124.8957,68.1190
124.9768,68.1732
125.0310,68.2543
125.0500,68.3500
Z" /> 
<path style="fill:#C83434; fill-opacity:1.0000; stroke:none;fill-rule:evenodd;"
d="M 122.1000,69.6500
122.0810,69.7457
122.0268,69.8268
121.9457,69.8810
121.8500,69.9000
121.2000,69.9000
121.1043,69.8810
121.0232,69.8268
120.9690,69.7457
120.9500,69.6500
120.9500,68.3500
120.9690,68.2543
121.0232,68.1732
121.1043,68.1190
121.2000,68.1000
121.8500,68.1000
121.9457,68.1190
122.0268,68.1732
122.0810,68.2543
122.1000,68.3500
Z" /> 
<path style="fill:#C83434; fill-opacity:1.0000; stroke:none;fill-rule:evenodd;"
d="M 121.1500,61.6500
122.8500,61.6500
122.8500,63.3500
121.1500,63.3500
Z" /> 
</g>
<g style="fill:#C83434; fill-opacity:1.0000; stroke:none;">
<circle cx="119.4600" cy="62.5000" r="0.8500" /> 
<circle cx="116.9200" cy="62.5000" r="0.8500" /> 
</g>
<g style="fill:none; 
stroke:#C83434; stroke-width:1.5000; stroke-opacity:1; 
stroke-linecap:round; stroke-linejoin:round;">
<path d="M115.5250 66.0000
L115.5250 63.8950
" />
<path d="M115.5250 69.0000
L115.5250 70.2650
" />
<path d="M115.5250 70.2650
L118.2600 73.0000
" />
<path d="M115.5250 69.0000
L115.5250 66.0000
" />
<path d="M115.5250 63.8950
L116.9200 62.5000
" />
<path d="M120.1800 60.6100
L123.7900 60.6100
" />
<path d="M119.4600 62.5000
L119.4600 61.3300
" />
<path d="M123.7900 60.6100
L126.3300 63.1500
" />
<path d="M121.5250 69.0000
L121.5250 66.0000
" />
<path d="M119.4600 61.3300
L120.1800 60.6100
" />
<path d="M126.3300 63.1500
L126.3300 71.2500
" />
<path d="M123.0800 74.5000
L120.6500 74.5000
" />
<path d="M118.4750 69.0000
L118.4750 66.0000
" />
<path d="M118.4750 63.4850
L119.4600 62.5000
" />
<path d="M118.4750 66.0000
L118.4750 63.4850
" />
<path d="M121.5250 69.0000
L118.4750 69.0000
" />
<path d="M126.3300 71.2500
L123.0800 74.5000
" />
<path d="M119.4600 63.9350
L121.5250 66.0000
" />
<path d="M119.4600 62.5000
L119.4600 63.9350
" />
<path d="M124.4750 66.0000
L124.4750 64.9750
" />
<path d="M124.4750 69.0000
L124.4750 66.0000
" />
<path d="M123.2600 71.5000
L124.4750 70.2850
" />
<path d="M124.4750 64.9750
L122.0000 62.5000
" />
<path d="M120.6500 71.5000
L123.2600 71.5000
" />
<path d="M124.4750 70.2850
L124.4750 69.0000
" />
<path style="fill:#C83434; fill-opacity:1.0000; stroke:none;fill-rule:evenodd;"
d="M 125.0035,59.2007
125.3065,59.2177
125.3203,59.2193
125.6161,59.2695
125.6296,59.2726
125.9179,59.3557
125.9311,59.3603
126.2082,59.4751
126.2207,59.4811
126.4232,59.5930
126.4833,59.6262
126.4951,59.6336
126.7398,59.8072
126.7507,59.8159
126.9744,60.0158
126.9842,60.0256
127.1841,60.2493
127.1928,60.2602
127.3664,60.5049
127.3738,60.5167
127.5189,60.7792
127.5249,60.7918
127.6397,61.0689
127.6443,61.0821
127.7274,61.3704
127.7305,61.3839
127.7807,61.6797
127.7823,61.6935
127.7993,61.9965
127.7995,62.0035
127.7995,73.9965
127.7993,74.0035
127.7823,74.3065
127.7807,74.3203
127.7305,74.6161
127.7274,74.6296
127.6443,74.9179
127.6397,74.9311
127.5249,75.2082
127.5189,75.2208
127.3738,75.4833
127.3664,75.4951
127.1928,75.7398
127.1841,75.7507
126.9842,75.9744
126.9744,75.9842
126.7507,76.1841
126.7398,76.1928
126.4951,76.3664
126.4833,76.3738
126.2208,76.5189
126.2082,76.5249
125.9311,76.6397
125.9179,76.6443
125.6296,76.7274
125.6161,76.7305
125.3203,76.7807
125.3065,76.7823
125.0035,76.7993
124.9965,76.7995
117.0035,76.7995
116.9965,76.7993
116.6935,76.7823
116.6797,76.7807
116.3839,76.7305
116.3704,76.7274
116.0821,76.6443
116.0689,76.6397
115.7918,76.5249
115.7792,76.5189
115.5167,76.3738
115.5049,76.3664
115.2602,76.1928
115.2493,76.1841
115.0256,75.9842
115.0158,75.9744
114.8159,75.7507
114.8072,75.7398
114.6336,75.4951
114.6262,75.4833
114.4811,75.2208
114.4751,75.2082
114.3603,74.9311
114.3557,74.9179
114.2726,74.6296
114.2695,74.6161
114.2272,74.3670
114.2193,74.3203
114.2177,74.3065
114.2007,74.0035
114.2005,73.9965
114.2005,70.9365
114.2202,70.8694
114.2730,70.8237
114.3421,70.8137
114.4057,70.8428
114.4350,70.8802
114.4555,70.9204
114.4902,70.9682
114.5712,71.0796
114.5712,71.0796
116.1607,72.6692
116.1942,72.7305
116.1970,72.7568
116.1970,73.6665
116.1970,73.6665
116.2075,73.7693
116.2075,73.7693
116.2170,73.7980
116.2627,73.9358
116.3548,74.0852
116.4788,74.2092
116.6282,74.3013
116.7947,74.3565
116.8975,74.3670
119.6225,74.3670
119.7253,74.3565
119.8918,74.3013
120.0412,74.2092
120.1652,74.0852
120.2119,74.0094
120.2639,73.9627
120.3175,73.9505
121.1233,73.9505
121.1233,73.9505
121.1234,73.9505
121.1234,73.9505
121.1778,73.9449
121.2227,73.9403
121.3837,73.8870
121.5280,73.7980
121.6480,73.6780
121.7370,73.5337
121.7903,73.3727
121.8005,73.2733
121.8005,72.8745
121.8202,72.8075
121.8730,72.7617
121.9245,72.7505
123.3584,72.7505
123.5528,72.7197
123.7400,72.6589
123.9154,72.5695
124.0746,72.4538
125.4288,71.0996
125.5445,70.9404
125.6317,70.7694
125.6336,70.7660
125.6404,70.7450
125.6947,70.5778
125.6997,70.5462
125.7180,70.4305
125.7255,70.3834
125.7255,64.8766
125.6947,64.6822
125.6339,64.4950
125.5445,64.3196
125.4288,64.1604
125.2896,64.0212
123.3868,62.1183
123.3533,62.0570
123.3505,62.0307
123.3505,61.6021
123.3505,61.6021
123.3505,61.6021
123.3441,61.5425
123.3277,61.4986
123.2938,61.4077
123.2938,61.4077
123.2075,61.2925
123.2075,61.2925
123.0923,61.2062
123.0923,61.2062
122.9575,61.1559
122.9575,61.1559
122.8979,61.1495
122.8979,61.1495
122.8979,61.1495
122.8979,61.1495
121.1021,61.1495
121.1021,61.1495
121.0425,61.1559
120.9077,61.2062
120.9077,61.2062
120.7925,61.2925
120.7925,61.2925
120.7062,61.4077
120.7062,61.4077
120.6559,61.5425
120.6495,61.6021
120.6495,61.6021
120.6495,61.6021
120.6495,63.3979
120.6495,63.3979
120.6559,63.4575
120.7062,63.5923
120.7062,63.5923
120.7925,63.7075
120.7925,63.7075
120.9077,63.7938
120.9077,63.7938
120.9151,63.7966
121.0425,63.8441
121.1021,63.8505
121.5307,63.8505
121.5977,63.8702
121.6183,63.8868
123.1882,65.4567
123.2217,65.5180
123.2245,65.5443
123.2245,69.7157
123.2048,69.7827
123.1882,69.8033
122.7783,70.2132
122.7170,70.2467
122.6907,70.2495
120.5516,70.2495
120.3572,70.2803
120.1700,70.3411
119.9946,70.4305
119.8354,70.5462
119.6962,70.6854
119.6962,70.6854
119.6962,70.6854
119.6528,70.7450
119.5805,70.8446
119.4911,71.0200
119.4303,71.2072
119.3995,71.4016
119.3995,71.5090
119.3798,71.5760
119.3270,71.6218
119.2755,71.6330
118.7128,71.6330
118.6458,71.6133
118.6252,71.5967
116.8118,69.7833
116.7783,69.7220
116.7755,69.6957
116.7755,64.4643
116.7952,64.3973
116.8118,64.3767
117.4215,63.7670
117.4529,63.7442
117.6278,63.6551
117.6793,63.6177
117.7998,63.5301
117.7998,63.5301
117.7998,63.5301
117.9501,63.3798
117.9501,63.3798
117.9501,63.3798
118.0750,63.2078
118.0750,63.2078
118.0751,63.2078
118.1716,63.0184
118.2372,62.8162
118.2705,62.6063
118.2705,62.3937
118.2372,62.1838
118.1716,61.9816
118.0751,61.7922
118.0750,61.7922
118.0750,61.7922
117.9501,61.6202
117.7998,61.4699
117.6278,61.3450
117.4384,61.2484
117.4384,61.2484
117.4384,61.2484
117.2362,61.1828
117.2362,61.1828
117.2362,61.1828
117.0750,61.1572
117.0263,61.1495
116.8137,61.1495
116.7650,61.1572
116.6038,61.1828
116.4016,61.2484
116.2122,61.3450
116.0402,61.4699
115.8899,61.6202
115.7650,61.7922
115.6758,61.9671
115.6530,61.9985
114.5712,63.0804
114.5712,63.0804
114.5215,63.1487
114.4555,63.2396
114.4350,63.2798
114.3870,63.3306
114.3192,63.3474
114.2531,63.3249
114.2096,63.2701
114.2005,63.2235
114.2005,62.0035
114.2007,61.9965
114.2027,61.9601
114.2177,61.6935
114.2193,61.6797
114.2695,61.3839
114.2726,61.3704
114.2951,61.2925
114.3557,61.0821
114.3603,61.0689
114.4503,60.8515
114.4751,60.7918
114.4811,60.7793
114.6262,60.5167
114.6336,60.5049
114.8072,60.2602
114.8159,60.2494
115.0158,60.0256
115.0256,60.0158
115.2494,59.8159
115.2602,59.8072
115.5049,59.6336
115.5167,59.6262
115.7793,59.4811
115.7918,59.4751
116.0689,59.3603
116.0821,59.3557
116.3704,59.2726
116.3839,59.2695
116.6797,59.2193
116.6935,59.2177
116.9965,59.2007
117.0035,59.2005
117.0399,59.2005
124.9601,59.2005
124.9965,59.2005
Z" /> 
<path style="fill:#D864FF; fill-opacity:0.4000; stroke:none;fill-rule:evenodd;"
d="M 114.9500,65.3500
114.9690,65.2543
115.0232,65.1732
115.1043,65.1190
115.2000,65.1000
115.8500,65.1000
115.9457,65.1190
116.0268,65.1732
116.0810,65.2543
116.1000,65.3500
116.1000,66.6500
116.0810,66.7457
116.0268,66.8268
115.9457,66.8810
115.8500,66.9000
115.2000,66.9000
115.1043,66.8810
115.0232,66.8268
114.9690,66.7457
114.9500,66.6500
Z" /> 
<path style="fill:#D864FF; fill-opacity:0.4000; stroke:none;fill-rule:evenodd;"
d="M 117.9000,65.3500
117.9190,65.2543
117.9732,65.1732
118.0543,65.1190
118.1500,65.1000
118.8000,65.1000
118.8957,65.1190
118.9768,65.1732
119.0310,65.2543
119.0500,65.3500
119.0500,66.6500
119.0310,66.7457
118.9768,66.8268
118.8957,66.8810
118.8000,66.9000
118.1500,66.9000
118.0543,66.8810
117.9732,66.8268
117.9190,66.7457
117.9000,66.6500
Z" /> 
<path style="fill:#D864FF; fill-opacity:0.4000; stroke:none;fill-rule:evenodd;"
d="M 125.0500,66.6500
125.0310,66.7457
124.9768,66.8268
124.8957,66.8810
124.8000,66.9000
124.1500,66.9000
124.0543,66.8810
123.9732,66.8268
123.9190,66.7457
123.9000,66.6500
123.9000,65.3500
123.9190,65.2543
123.9732,65.1732
124.0543,65.1190
124.1500,65.1000
124.8000,65.1000
124.8957,65.1190
124.9768,65.1732
125.0310,65.2543
125.0500,65.3500
Z" /> 
<path style="fill:#D864FF; fill-opacity:0.4000; stroke:none;fill-rule:evenodd;"
d="M 122.1000,66.6500
122.0810,66.7457
122.0268,66.8268
121.9457,66.8810
121.8500,66.9000
121.2000,66.9000
121.1043,66.8810
121.0232,66.8268
120.9690,66.7457
120.9500,66.6500
120.9500,65.3500
120.9690,65.2543
121.0232,65.1732
121.1043,65.1190
121.2000,65.1000
121.8500,65.1000
121.9457,65.1190
122.0268,65.1732
122.0810,65.2543
122.1000,65.3500
Z" /> 
<path style="fill:#D864FF; fill-opacity:0.4000; stroke:none;fill-rule:evenodd;"
d="M 121.3000,74.7250
121.2829,74.8111
121.2341,74.8841
121.1611,74.9329
121.0750,74.9500
120.2250,74.9500
120.1389,74.9329
120.0659,74.8841
120.0171,74.8111
120.0000,74.7250
120.0000,74.2750
120.0171,74.1889
120.0659,74.1159
120.1389,74.0671
120.2250,74.0500
121.0750,74.0500
121.1611,74.0671
121.2341,74.1159
121.2829,74.1889
121.3000,74.2750
Z" /> 
<path style="fill:#D864FF; fill-opacity:0.4000; stroke:none;fill-rule:evenodd;"
d="M 121.3000,73.2250
121.2829,73.3111
121.2341,73.3841
121.1611,73.4329
121.0750,73.4500
119.8250,73.4500
119.7389,73.4329
119.6659,73.3841
119.6171,73.3111
119.6000,73.2250
119.6000,72.7750
119.6171,72.6889
119.6659,72.6159
119.7389,72.5671
119.8250,72.5500
121.0750,72.5500
121.1611,72.5671
121.2341,72.6159
121.2829,72.6889
121.3000,72.7750
Z" /> 
<path style="fill:#D864FF; fill-opacity:0.4000; stroke:none;fill-rule:evenodd;"
d="M 119.5725,72.1335
119.6682,72.1525
119.7493,72.2067
119.8035,72.2878
119.8225,72.3835
119.8225,73.6165
119.8035,73.7122
119.7493,73.7933
119.6682,73.8475
119.5725,73.8665
116.9475,73.8665
116.8518,73.8475
116.7707,73.7933
116.7165,73.7122
116.6975,73.6165
116.6975,72.3835
116.7165,72.2878
116.7707,72.2067
116.8518,72.1525
116.9475,72.1335
Z" /> 
<path style="fill:#D864FF; fill-opacity:0.4000; stroke:none;fill-rule:evenodd;"
d="M 121.3000,71.7250
121.2829,71.8111
121.2341,71.8841
121.1611,71.9329
121.0750,71.9500
120.2250,71.9500
120.1389,71.9329
120.0659,71.8841
120.0171,71.8111
120.0000,71.7250
120.0000,71.2750
120.0171,71.1889
120.0659,71.1159
120.1389,71.0671
120.2250,71.0500
121.0750,71.0500
121.1611,71.0671
121.2341,71.1159
121.2829,71.1889
121.3000,71.2750
Z" /> 
<path style="fill:#D864FF; fill-opacity:0.4000; stroke:none;fill-rule:evenodd;"
d="M 114.9500,68.3500
114.9690,68.2543
115.0232,68.1732
115.1043,68.1190
115.2000,68.1000
115.8500,68.1000
115.9457,68.1190
116.0268,68.1732
116.0810,68.2543
116.1000,68.3500
116.1000,69.6500
116.0810,69.7457
116.0268,69.8268
115.9457,69.8810
115.8500,69.9000
115.2000,69.9000
115.1043,69.8810
115.0232,69.8268
114.9690,69.7457
114.9500,69.6500
Z" /> 
<path style="fill:#D864FF; fill-opacity:0.4000; stroke:none;fill-rule:evenodd;"
d="M 117.9000,68.3500
117.9190,68.2543
117.9732,68.1732
118.0543,68.1190
118.1500,68.1000
118.8000,68.1000
118.8957,68.1190
118.9768,68.1732
119.0310,68.2543
119.0500,68.3500
119.0500,69.6500
119.0310,69.7457
118.9768,69.8268
118.8957,69.8810
118.8000,69.9000
118.1500,69.9000
118.0543,69.8810
117.9732,69.8268
117.9190,69.7457
117.9000,69.6500
Z" /> 
<path style="fill:#D864FF; fill-opacity:0.4000; stroke:none;fill-rule:evenodd;"
d="M 125.0500,69.6500
125.0310,69.7457
124.9768,69.8268
124.8957,69.8810
124.8000,69.9000
124.1500,69.9000
124.0543,69.8810
123.9732,69.8268
123.9190,69.7457
123.9000,69.6500
123.9000,68.3500
123.9190,68.2543
123.9732,68.1732
124.0543,68.1190
124.1500,68.1000
124.8000,68.1000
124.8957,68.1190
124.9768,68.1732
125.0310,68.2543
125.0500,68.3500
Z" /> 
<path style="fill:#D864FF; fill-opacity:0.4000; stroke:none;fill-rule:evenodd;"
d="M 122.1000,69.6500
122.0810,69.7457
122.0268,69.8268
121.9457,69.8810
121.8500,69.9000
121.2000,69.9000
121.1043,69.8810
121.0232,69.8268
120.9690,69.7457
120.9500,69.6500
120.9500,68.3500
120.9690,68.2543
121.0232,68.1732
121.1043,68.1190
121.2000,68.1000
121.8500,68.1000
121.9457,68.1190
122.0268,68.1732
122.0810,68.2543
122.1000,68.3500
Z" /> 
<path style="fill:#D864FF; fill-opacity:0.4000; stroke:none;fill-rule:evenodd;"
d="M 121.1500,61.6500
122.8500,61.6500
122.8500,63.3500
121.1500,63.3500
Z" /> 
</g>
<g style="fill:#D864FF; fill-opacity:0.4000; stroke:none;">
<circle cx="119.4600" cy="62.5000" r="0.8500" /> 
<circle cx="116.9200" cy="62.5000" r="0.8500" /> 
<path style="fill:#B4A09A; fill-opacity:0.9020; stroke:none;fill-rule:evenodd;"
d="M 114.9500,65.3500
114.9690,65.2543
115.0232,65.1732
115.1043,65.1190
115.2000,65.1000
115.8500,65.1000
115.9457,65.1190
116.0268,65.1732
116.0810,65.2543
116.1000,65.3500
116.1000,66.6500
116.0810,66.7457
116.0268,66.8268
115.9457,66.8810
115.8500,66.9000
115.2000,66.9000
115.1043,66.8810
115.0232,66.8268
114.9690,66.7457
114.9500,66.6500
Z" /> 
<path style="fill:#B4A09A; fill-opacity:0.9020; stroke:none;fill-rule:evenodd;"
d="M 117.9000,65.3500
117.9190,65.2543
117.9732,65.1732
118.0543,65.1190
118.1500,65.1000
118.8000,65.1000
118.8957,65.1190
118.9768,65.1732
119.0310,65.2543
119.0500,65.3500
119.0500,66.6500
119.0310,66.7457
118.9768,66.8268
118.8957,66.8810
118.8000,66.9000
118.1500,66.9000
118.0543,66.8810
117.9732,66.8268
117.9190,66.7457
117.9000,66.6500
Z" /> 
<path style="fill:#B4A09A; fill-opacity:0.9020; stroke:none;fill-rule:evenodd;"
d="M 125.0500,66.6500
125.0310,66.7457
124.9768,66.8268
124.8957,66.8810
124.8000,66.9000
124.1500,66.9000
124.0543,66.8810
123.9732,66.8268
123.9190,66.7457
123.9000,66.6500
123.9000,65.3500
123.9190,65.2543
123.9732,65.1732
124.0543,65.1190
124.1500,65.1000
124.8000,65.1000
124.8957,65.1190
124.9768,65.1732
125.0310,65.2543
125.0500,65.3500
Z" /> 
<path style="fill:#B4A09A; fill-opacity:0.9020; stroke:none;fill-rule:evenodd;"
d="M 122.1000,66.6500
122.0810,66.7457
122.0268,66.8268
121.9457,66.8810
121.8500,66.9000
121.2000,66.9000
121.1043,66.8810
121.0232,66.8268
120.9690,66.7457
120.9500,66.6500
120.9500,65.3500
120.9690,65.2543
121.0232,65.1732
121.1043,65.1190
121.2000,65.1000
121.8500,65.1000
121.9457,65.1190
122.0268,65.1732
122.0810,65.2543
122.1000,65.3500
Z" /> 
<path style="fill:#B4A09A; fill-opacity:0.9020; stroke:none;fill-rule:evenodd;"
d="M 121.3000,74.7250
121.2829,74.8111
121.2341,74.8841
121.1611,74.9329
121.0750,74.9500
120.2250,74.9500
120.1389,74.9329
120.0659,74.8841
120.0171,74.8111
120.0000,74.7250
120.0000,74.2750
120.0171,74.1889
120.0659,74.1159
120.1389,74.0671
120.2250,74.0500
121.0750,74.0500
121.1611,74.0671
121.2341,74.1159
121.2829,74.1889
121.3000,74.2750
Z" /> 
<path style="fill:#B4A09A; fill-opacity:0.9020; stroke:none;fill-rule:evenodd;"
d="M 121.3000,73.2250
121.2829,73.3111
121.2341,73.3841
121.1611,73.4329
121.0750,73.4500
119.8250,73.4500
119.7389,73.4329
119.6659,73.3841
119.6171,73.3111
119.6000,73.2250
119.6000,72.7750
119.6171,72.6889
119.6659,72.6159
119.7389,72.5671
119.8250,72.5500
121.0750,72.5500
121.1611,72.5671
121.2341,72.6159
121.2829,72.6889
121.3000,72.7750
Z" /> 
<path style="fill:#B4A09A; fill-opacity:0.9020; stroke:none;fill-rule:evenodd;"
d="M 119.5725,72.1335
119.6682,72.1525
119.7493,72.2067
119.8035,72.2878
119.8225,72.3835
119.8225,73.6165
119.8035,73.7122
119.7493,73.7933
119.6682,73.8475
119.5725,73.8665
116.9475,73.8665
116.8518,73.8475
116.7707,73.7933
116.7165,73.7122
116.6975,73.6165
116.6975,72.3835
116.7165,72.2878
116.7707,72.2067
116.8518,72.1525
116.9475,72.1335
Z" /> 
<path style="fill:#B4A09A; fill-opacity:0.9020; stroke:none;fill-rule:evenodd;"
d="M 121.3000,71.7250
121.2829,71.8111
121.2341,71.8841
121.1611,71.9329
121.0750,71.9500
120.2250,71.9500
120.1389,71.9329
120.0659,71.8841
120.0171,71.8111
120.0000,71.7250
120.0000,71.2750
120.0171,71.1889
120.0659,71.1159
120.1389,71.0671
120.2250,71.0500
121.0750,71.0500
121.1611,71.0671
121.2341,71.1159
121.2829,71.1889
121.3000,71.2750
Z" /> 
<path style="fill:#B4A09A; fill-opacity:0.9020; stroke:none;fill-rule:evenodd;"
d="M 114.9500,68.3500
114.9690,68.2543
115.0232,68.1732
115.1043,68.1190
115.2000,68.1000
115.8500,68.1000
115.9457,68.1190
116.0268,68.1732
116.0810,68.2543
116.1000,68.3500
116.1000,69.6500
116.0810,69.7457
116.0268,69.8268
115.9457,69.8810
115.8500,69.9000
115.2000,69.9000
115.1043,69.8810
115.0232,69.8268
114.9690,69.7457
114.9500,69.6500
Z" /> 
<path style="fill:#B4A09A; fill-opacity:0.9020; stroke:none;fill-rule:evenodd;"
d="M 117.9000,68.3500
117.9190,68.2543
117.9732,68.1732
118.0543,68.1190
118.1500,68.1000
118.8000,68.1000
118.8957,68.1190
118.9768,68.1732
119.0310,68.2543
119.0500,68.3500
119.0500,69.6500
119.0310,69.7457
118.9768,69.8268
118.8957,69.8810
118.8000,69.9000
118.1500,69.9000
118.0543,69.8810
117.9732,69.8268
117.9190,69.7457
117.9000,69.6500
Z" /> 
<path style="fill:#B4A09A; fill-opacity:0.9020; stroke:none;fill-rule:evenodd;"
d="M 125.0500,69.6500
125.0310,69.7457
124.9768,69.8268
124.8957,69.8810
124.8000,69.9000
124.1500,69.9000
124.0543,69.8810
123.9732,69.8268
123.9190,69.7457
123.9000,69.6500
123.9000,68.3500
123.9190,68.2543
123.9732,68.1732
124.0543,68.1190
124.1500,68.1000
124.8000,68.1000
124.8957,68.1190
124.9768,68.1732
125.0310,68.2543
125.0500,68.3500
Z" /> 
<path style="fill:#B4A09A; fill-opacity:0.9020; stroke:none;fill-rule:evenodd;"
d="M 122.1000,69.6500
122.0810,69.7457
122.0268,69.8268
121.9457,69.8810
121.8500,69.9000
121.2000,69.9000
121.1043,69.8810
121.0232,69.8268
120.9690,69.7457
120.9500,69.6500
120.9500,68.3500
120.9690,68.2543
121.0232,68.1732
121.1043,68.1190
121.2000,68.1000
121.8500,68.1000
121.9457,68.1190
122.0268,68.1732
122.0810,68.2543
122.1000,68.3500
Z" /> 
</g>
<g style="fill:none; 
stroke:#F2EDA1; stroke-width:0.1200; stroke-opacity:1; 
stroke-linecap:round; stroke-linejoin:round;">
<text x="118.5400" y="61.0000"
textLength="2.3533" font-size="0.9333" lengthAdjust="spacingAndGlyphs"
text-anchor="start" opacity="0" stroke-opacity="0">GND</text>
<g class="stroked-text"><desc>GND</desc>
<path d="M119.1523 60.2414
L119.0856 60.2081
" />
<path d="M119.0856 60.2081
L118.9856 60.2081
" />
<path d="M118.9856 60.2081
L118.8856 60.2414
" />
<path d="M118.8856 60.2414
L118.8189 60.3081
" />
<path d="M118.8189 60.3081
L118.7856 60.3748
" />
<path d="M118.7856 60.3748
L118.7523 60.5081
" />
<path d="M118.7523 60.5081
L118.7523 60.6081
" />
<path d="M118.7523 60.6081
L118.7856 60.7414
" />
<path d="M118.7856 60.7414
L118.8189 60.8081
" />
<path d="M118.8189 60.8081
L118.8856 60.8748
" />
<path d="M118.8856 60.8748
L118.9856 60.9081
" />
<path d="M118.9856 60.9081
L119.0523 60.9081
" />
<path d="M119.0523 60.9081
L119.1523 60.8748
" />
<path d="M119.1523 60.8748
L119.1856 60.8414
" />
<path d="M119.1856 60.8414
L119.1856 60.6081
" />
<path d="M119.1856 60.6081
L119.0523 60.6081
" />
<path d="M119.4856 60.9081
L119.4856 60.2081
" />
<path d="M119.4856 60.2081
L119.8856 60.9081
" />
<path d="M119.8856 60.9081
L119.8856 60.2081
" />
<path d="M120.2189 60.9081
L120.2189 60.2081
" />
<path d="M120.2189 60.2081
L120.3856 60.2081
" />
<path d="M120.3856 60.2081
L120.4856 60.2414
" />
<path d="M120.4856 60.2414
L120.5523 60.3081
" />
<path d="M120.5523 60.3081
L120.5856 60.3748
" />
<path d="M120.5856 60.3748
L120.6189 60.5081
" />
<path d="M120.6189 60.5081
L120.6189 60.6081
" />
<path d="M120.6189 60.6081
L120.5856 60.7414
" />
<path d="M120.5856 60.7414
L120.5523 60.8081
" />
<path d="M120.5523 60.8081
L120.4856 60.8748
" />
<path d="M120.4856 60.8748
L120.3856 60.9081
" />
<path d="M120.3856 60.9081
L120.2189 60.9081
" />
</g><text x="116.0000" y="61.0000"
textLength="2.1533" font-size="0.9333" lengthAdjust="spacingAndGlyphs"
text-anchor="start" opacity="0" stroke-opacity="0">12V</text>
<g class="stroked-text"><desc>12V</desc>
<path d="M116.6123 60.9081
L116.2123 60.9081
" />
<path d="M116.4123 60.9081
L116.4123 60.2081
" />
<path d="M116.4123 60.2081
L116.3456 60.3081
" />
<path d="M116.3456 60.3081
L116.2789 60.3748
" />
<path d="M116.2789 60.3748
L116.2123 60.4081
" />
<path d="M116.8789 60.2748
L116.9123 60.2414
" />
<path d="M116.9123 60.2414
L116.9789 60.2081
" />
<path d="M116.9789 60.2081
L117.1456 60.2081
" />
<path d="M117.1456 60.2081
L117.2123 60.2414
" />
<path d="M117.2123 60.2414
L117.2456 60.2748
" />
<path d="M117.2456 60.2748
L117.2789 60.3414
" />
<path d="M117.2789 60.3414
L117.2789 60.4081
" />
<path d="M117.2789 60.4081
L117.2456 60.5081
" />
<path d="M117.2456 60.5081
L116.8456 60.9081
" />
<path d="M116.8456 60.9081
L117.2789 60.9081
" />
<path d="M117.4789 60.2081
L117.7123 60.9081
" />
<path d="M117.7123 60.9081
L117.9456 60.2081
" />
</g><text x="121.0800" y="61.0000"
textLength="2.1533" font-size="0.9333" lengthAdjust="spacingAndGlyphs"
text-anchor="start" opacity="0" stroke-opacity="0">3V3</text>
<g class="stroked-text"><desc>3V3</desc>
<path d="M121.2589 60.2081
L121.6923 60.2081
" />
<path d="M121.6923 60.2081
L121.4589 60.4748
" />
<path d="M121.4589 60.4748
L121.5589 60.4748
" />
<path d="M121.5589 60.4748
L121.6256 60.5081
" />
<path d="M121.6256 60.5081
L121.6589 60.5414
" />
<path d="M121.6589 60.5414
L121.6923 60.6081
" />
<path d="M121.6923 60.6081
L121.6923 60.7748
" />
<path d="M121.6923 60.7748
L121.6589 60.8414
" />
<path d="M121.6589 60.8414
L121.6256 60.8748
" />
<path d="M121.6256 60.8748
L121.5589 60.9081
" />
<path d="M121.5589 60.9081
L121.3589 60.9081
" />
<path d="M121.3589 60.9081
L121.2923 60.8748
" />
<path d="M121.2923 60.8748
L121.2589 60.8414
" />
<path d="M121.8923 60.2081
L122.1256 60.9081
" />
<path d="M122.1256 60.9081
L122.3589 60.2081
" />
<path d="M122.5256 60.2081
L122.9589 60.2081
" />
<path d="M122.9589 60.2081
L122.7256 60.4748
" />
<path d="M122.7256 60.4748
L122.8256 60.4748
" />
<path d="M122.8256 60.4748
L122.8923 60.5081
" />
<path d="M122.8923 60.5081
L122.9256 60.5414
" />
<path d="M122.9256 60.5414
L122.9589 60.6081
" />
<path d="M122.9589 60.6081
L122.9589 60.7748
" />
<path d="M122.9589 60.7748
L122.9256 60.8414
" />
<path d="M122.9256 60.8414
L122.8923 60.8748
" />
<path d="M122.8923 60.8748
L122.8256 60.9081
" />
<path d="M122.8256 60.9081
L122.6256 60.9081
" />
<path d="M122.6256 60.9081
L122.5589 60.8748
" />
<path d="M122.5589 60.8748
L122.5256 60.8414
" />
</g><text x="117.0077" y="66.3500"
textLength="1.5867" font-size="0.9333" lengthAdjust="spacingAndGlyphs"
text-anchor="middle" opacity="0" stroke-opacity="0">C1</text>
<g class="stroked-text"><desc>C1</desc>
<path d="M116.8910 66.2509
L116.8577 66.2843
" />
<path d="M116.8577 66.2843
L116.7577 66.3176
" />
<path d="M116.7577 66.3176
L116.6910 66.3176
" />
<path d="M116.6910 66.3176
L116.5910 66.2843
" />
<path d="M116.5910 66.2843
L116.5243 66.2176
" />
<path d="M116.5243 66.2176
L116.4910 66.1509
" />
<path d="M116.4910 66.1509
L116.4577 66.0176
" />
<path d="M116.4577 66.0176
L116.4577 65.9176
" />
<path d="M116.4577 65.9176
L116.4910 65.7843
" />
<path d="M116.4910 65.7843
L116.5243 65.7176
" />
<path d="M116.5243 65.7176
L116.5910 65.6509
" />
<path d="M116.5910 65.6509
L116.6910 65.6176
" />
<path d="M116.6910 65.6176
L116.7577 65.6176
" />
<path d="M116.7577 65.6176
L116.8577 65.6509
" />
<path d="M116.8577 65.6509
L116.8910 65.6843
" />
<path d="M117.5577 66.3176
L117.1577 66.3176
" />
<path d="M117.3577 66.3176
L117.3577 65.6176
" />
<path d="M117.3577 65.6176
L117.2910 65.7176
" />
<path d="M117.2910 65.7176
L117.2243 65.7843
" />
<path d="M117.2243 65.7843
L117.1577 65.8176
" />
</g><text x="117.0000" y="65.1500"
textLength="2.7867" font-size="0.9333" lengthAdjust="spacingAndGlyphs"
text-anchor="middle" opacity="0" stroke-opacity="0">10uF</text>
<g class="stroked-text"><desc>10uF</desc>
<path d="M116.2500 65.1176
L115.8500 65.1176
" />
<path d="M116.0500 65.1176
L116.0500 64.4176
" />
<path d="M116.0500 64.4176
L115.9833 64.5176
" />
<path d="M115.9833 64.5176
L115.9167 64.5843
" />
<path d="M115.9167 64.5843
L115.8500 64.6176
" />
<path d="M116.6833 64.4176
L116.7500 64.4176
" />
<path d="M116.7500 64.4176
L116.8167 64.4509
" />
<path d="M116.8167 64.4509
L116.8500 64.4843
" />
<path d="M116.8500 64.4843
L116.8833 64.5509
" />
<path d="M116.8833 64.5509
L116.9167 64.6843
" />
<path d="M116.9167 64.6843
L116.9167 64.8509
" />
<path d="M116.9167 64.8509
L116.8833 64.9843
" />
<path d="M116.8833 64.9843
L116.8500 65.0509
" />
<path d="M116.8500 65.0509
L116.8167 65.0843
" />
<path d="M116.8167 65.0843
L116.7500 65.1176
" />
<path d="M116.7500 65.1176
L116.6833 65.1176
" />
<path d="M116.6833 65.1176
L116.6167 65.0843
" />
<path d="M116.6167 65.0843
L116.5833 65.0509
" />
<path d="M116.5833 65.0509
L116.5500 64.9843
" />
<path d="M116.5500 64.9843
L116.5167 64.8509
" />
<path d="M116.5167 64.8509
L116.5167 64.6843
" />
<path d="M116.5167 64.6843
L116.5500 64.5509
" />
<path d="M116.5500 64.5509
L116.5833 64.4843
" />
<path d="M116.5833 64.4843
L116.6167 64.4509
" />
<path d="M116.6167 64.4509
L116.6833 64.4176
" />
<path d="M117.5167 64.6509
L117.5167 65.1176
" />
<path d="M117.2167 64.6509
L117.2167 65.0176
" />
<path d="M117.2167 65.0176
L117.2500 65.0843
" />
<path d="M117.2500 65.0843
L117.3167 65.1176
" />
<path d="M117.3167 65.1176
L117.4167 65.1176
" />
<path d="M117.4167 65.1176
L117.4833 65.0843
" />
<path d="M117.4833 65.0843
L117.5167 65.0509
" />
<path d="M118.0833 64.7509
L117.8500 64.7509
" />
<path d="M117.8500 65.1176
L117.8500 64.4176
" />
<path d="M117.8500 64.4176
L118.1833 64.4176
" />
</g><text x="122.9923" y="66.3500"
textLength="1.5867" font-size="0.9333" lengthAdjust="spacingAndGlyphs"
text-anchor="middle" opacity="0" stroke-opacity="0">C4</text>
<g class="stroked-text"><desc>C4</desc>
<path d="M122.8757 66.2509
L122.8423 66.2843
" />
<path d="M122.8423 66.2843
L122.7423 66.3176
" />
<path d="M122.7423 66.3176
L122.6757 66.3176
" />
<path d="M122.6757 66.3176
L122.5757 66.2843
" />
<path d="M122.5757 66.2843
L122.5090 66.2176
" />
<path d="M122.5090 66.2176
L122.4757 66.1509
" />
<path d="M122.4757 66.1509
L122.4423 66.0176
" />
<path d="M122.4423 66.0176
L122.4423 65.9176
" />
<path d="M122.4423 65.9176
L122.4757 65.7843
" />
<path d="M122.4757 65.7843
L122.5090 65.7176
" />
<path d="M122.5090 65.7176
L122.5757 65.6509
" />
<path d="M122.5757 65.6509
L122.6757 65.6176
" />
<path d="M122.6757 65.6176
L122.7423 65.6176
" />
<path d="M122.7423 65.6176
L122.8423 65.6509
" />
<path d="M122.8423 65.6509
L122.8757 65.6843
" />
<path d="M123.4757 65.8509
L123.4757 66.3176
" />
<path d="M123.3090 65.5843
L123.1423 66.0843
" />
<path d="M123.1423 66.0843
L123.5757 66.0843
" />
</g><g transform="rotate(-90.000000 126.0000 66.0000)">
<text x="126.0000" y="66.3500"
textLength="3.4533" font-size="0.9333" lengthAdjust="spacingAndGlyphs"
text-anchor="middle" opacity="0" stroke-opacity="0">100nF</text>
</g>
<g class="stroked-text"><desc>100nF</desc>
<path d="M126.3176 67.0833
L126.3176 67.4833
" />
<path d="M126.3176 67.2833
L125.6176 67.2833
" />
<path d="M125.6176 67.2833
L125.7176 67.3500
" />
<path d="M125.7176 67.3500
L125.7843 67.4167
" />
<path d="M125.7843 67.4167
L125.8176 67.4833
" />
<path d="M125.6176 66.6500
L125.6176 66.5833
" />
<path d="M125.6176 66.5833
L125.6509 66.5167
" />
<path d="M125.6509 66.5167
L125.6843 66.4833
" />
<path d="M125.6843 66.4833
L125.7509 66.4500
" />
<path d="M125.7509 66.4500
L125.8843 66.4167
" />
<path d="M125.8843 66.4167
L126.0509 66.4167
" />
<path d="M126.0509 66.4167
L126.1843 66.4500
" />
<path d="M126.1843 66.4500
L126.2509 66.4833
" />
<path d="M126.2509 66.4833
L126.2843 66.5167
" />
<path d="M126.2843 66.5167
L126.3176 66.5833
" />
<path d="M126.3176 66.5833
L126.3176 66.6500
" />
<path d="M126.3176 66.6500
L126.2843 66.7167
" />
<path d="M126.2843 66.7167
L126.2509 66.7500
" />
<path d="M126.2509 66.7500
L126.1843 66.7833
" />
<path d="M126.1843 66.7833
L126.0509 66.8167
" />
<path d="M126.0509 66.8167
L125.8843 66.8167
" />
<path d="M125.8843 66.8167
L125.7509 66.7833
" />
<path d="M125.7509 66.7833
L125.6843 66.7500
" />
<path d="M125.6843 66.7500
L125.6509 66.7167
" />
<path d="M125.6509 66.7167
L125.6176 66.6500
" />
<path d="M125.6176 65.9833
L125.6176 65.9167
" />
<path d="M125.6176 65.9167
L125.6509 65.8500
" />
<path d="M125.6509 65.8500
L125.6843 65.8167
" />
<path d="M125.6843 65.8167
L125.7509 65.7833
" />
<path d="M125.7509 65.7833
L125.8843 65.7500
" />
<path d="M125.8843 65.7500
L126.0509 65.7500
" />
<path d="M126.0509 65.7500
L126.1843 65.7833
" />
<path d="M126.1843 65.7833
L126.2509 65.8167
" />
<path d="M126.2509 65.8167
L126.2843 65.8500
" />
<path d="M126.2843 65.8500
L126.3176 65.9167
" />
<path d="M126.3176 65.9167
L126.3176 65.9833
" />
<path d="M126.3176 65.9833
L126.2843 66.0500
" />
<path d="M126.2843 66.0500
L126.2509 66.0833
" />
<path d="M126.2509 66.0833
L126.1843 66.1167
" />
<path d="M126.1843 66.1167
L126.0509 66.1500
" />
<path d="M126.0509 66.1500
L125.8843 66.1500
" />
<path d="M125.8843 66.1500
L125.7509 66.1167
" />
<path d="M125.7509 66.1167
L125.6843 66.0833
" />
<path d="M125.6843 66.0833
L125.6509 66.0500
" />
<path d="M125.6509 66.0500
L125.6176 65.9833
" />
<path d="M125.8509 65.4500
L126.3176 65.4500
" />
<path d="M125.9176 65.4500
L125.8843 65.4167
" />
<path d="M125.8843 65.4167
L125.8509 65.3500
" />
<path d="M125.8509 65.3500
L125.8509 65.2500
" />
<path d="M125.8509 65.2500
L125.8843 65.1833
" />
<path d="M125.8843 65.1833
L125.9509 65.1500
" />
<path d="M125.9509 65.1500
L126.3176 65.1500
" />
<path d="M125.9509 64.5833
L125.9509 64.8167
" />
<path d="M126.3176 64.8167
L125.6176 64.8167
" />
<path d="M125.6176 64.8167
L125.6176 64.4833
" />
</g><text x="125.0000" y="74.3500"
textLength="1.6200" font-size="0.9333" lengthAdjust="spacingAndGlyphs"
text-anchor="middle" opacity="0" stroke-opacity="0">U1</text>
<g class="stroked-text"><desc>U1</desc>
<path d="M124.4667 73.6176
L124.4667 74.1843
" />
<path d="M124.4667 74.1843
L124.5000 74.2509
" />
<path d="M124.5000 74.2509
L124.5333 74.2843
" />
<path d="M124.5333 74.2843
L124.6000 74.3176
" />
<path d="M124.6000 74.3176
L124.7333 74.3176
" />
<path d="M124.7333 74.3176
L124.8000 74.2843
" />
<path d="M124.8000 74.2843
L124.8333 74.2509
" />
<path d="M124.8333 74.2509
L124.8667 74.1843
" />
<path d="M124.8667 74.1843
L124.8667 73.6176
" />
<path d="M125.5667 74.3176
L125.1667 74.3176
" />
<path d="M125.3667 74.3176
L125.3667 73.6176
" />
<path d="M125.3667 73.6176
L125.3000 73.7176
" />
<path d="M125.3000 73.7176
L125.2333 73.7843
" />
<path d="M125.2333 73.7843
L125.1667 73.8176
" />
</g><text x="125.0000" y="73.3500"
textLength="4.1533" font-size="0.9333" lengthAdjust="spacingAndGlyphs"
text-anchor="middle" opacity="0" stroke-opacity="0">HT7333</text>
<g class="stroked-text"><desc>HT7333</desc>
<path d="M123.2000 73.3176
L123.2000 72.6176
" />
<path d="M123.2000 72.9509
L123.6000 72.9509
" />
<path d="M123.6000 73.3176
L123.6000 72.6176
" />
<path d="M123.8333 72.6176
L124.2333 72.6176
" />
<path d="M124.0333 73.3176
L124.0333 72.6176
" />
<path d="M124.4000 72.6176
L124.8667 72.6176
" />
<path d="M124.8667 72.6176
L124.5667 73.3176
" />
<path d="M125.0667 72.6176
L125.5000 72.6176
" />
<path d="M125.5000 72.6176
L125.2667 72.8843
" />
<path d="M125.2667 72.8843
L125.3667 72.8843
" />
<path d="M125.3667 72.8843
L125.4333 72.9176
" />
<path d="M125.4333 72.9176
L125.4667 72.9509
" />
<path d="M125.4667 72.9509
L125.5000 73.0176
" />
<path d="M125.5000 73.0176
L125.5000 73.1843
" />
<path d="M125.5000 73.1843
L125.4667 73.2509
" />
<path d="M125.4667 73.2509
L125.4333 73.2843
" />
<path d="M125.4333 73.2843
L125.3667 73.3176
" />
<path d="M125.3667 73.3176
L125.1667 73.3176
" />
<path d="M125.1667 73.3176
L125.1000 73.2843
" />
<path d="M125.1000 73.2843
L125.0667 73.2509
" />
<path d="M125.7333 72.6176
L126.1667 72.6176
" />
<path d="M126.1667 72.6176
L125.9333 72.8843
" />
<path d="M125.9333 72.8843
L126.0333 72.8843
" />
<path d="M126.0333 72.8843
L126.1000 72.9176
" />
<path d="M126.1000 72.9176
L126.1333 72.9509
" />
<path d="M126.1333 72.9509
L126.1667 73.0176
" />
<path d="M126.1667 73.0176
L126.1667 73.1843
" />
<path d="M126.1667 73.1843
L126.1333 73.2509
" />
<path d="M126.1333 73.2509
L126.1000 73.2843
" />
<path d="M126.1000 73.2843
L126.0333 73.3176
" />
<path d="M126.0333 73.3176
L125.8333 73.3176
" />
<path d="M125.8333 73.3176
L125.7667 73.2843
" />
<path d="M125.7667 73.2843
L125.7333 73.2509
" />
<path d="M126.4000 72.6176
L126.8333 72.6176
" />
<path d="M126.8333 72.6176
L126.6000 72.8843
" />
<path d="M126.6000 72.8843
L126.7000 72.8843
" />
<path d="M126.7000 72.8843
L126.7667 72.9176
" />
<path d="M126.7667 72.9176
L126.8000 72.9509
" />
<path d="M126.8000 72.9509
L126.8333 73.0176
" />
<path d="M126.8333 73.0176
L126.8333 73.1843
" />
<path d="M126.8333 73.1843
L126.8000 73.2509
" />
<path d="M126.8000 73.2509
L126.7667 73.2843
" />
<path d="M126.7667 73.2843
L126.7000 73.3176
" />
<path d="M126.7000 73.3176
L126.5000 73.3176
" />
<path d="M126.5000 73.3176
L126.4333 73.2843
" />
<path d="M126.4333 73.2843
L126.4000 73.2509
" />
</g><text x="117.0077" y="69.3500"
textLength="1.5867" font-size="0.9333" lengthAdjust="spacingAndGlyphs"
text-anchor="middle" opacity="0" stroke-opacity="0">C2</text>
<g class="stroked-text"><desc>C2</desc>
<path d="M116.8910 69.2509
L116.8577 69.2843
" />
<path d="M116.8577 69.2843
L116.7577 69.3176
" />
<path d="M116.7577 69.3176
L116.6910 69.3176
" />
<path d="M116.6910 69.3176
L116.5910 69.2843
" />
<path d="M116.5910 69.2843
L116.5243 69.2176
" />
<path d="M116.5243 69.2176
L116.4910 69.1509
" />
<path d="M116.4910 69.1509
L116.4577 69.0176
" />
<path d="M116.4577 69.0176
L116.4577 68.9176
" />
<path d="M116.4577 68.9176
L116.4910 68.7843
" />
<path d="M116.4910 68.7843
L116.5243 68.7176
" />
<path d="M116.5243 68.7176
L116.5910 68.6509
" />
<path d="M116.5910 68.6509
L116.6910 68.6176
" />
<path d="M116.6910 68.6176
L116.7577 68.6176
" />
<path d="M116.7577 68.6176
L116.8577 68.6509
" />
<path d="M116.8577 68.6509
L116.8910 68.6843
" />
<path d="M117.1577 68.6843
L117.1910 68.6509
" />
<path d="M117.1910 68.6509
L117.2577 68.6176
" />
<path d="M117.2577 68.6176
L117.4243 68.6176
" />
<path d="M117.4243 68.6176
L117.4910 68.6509
" />
<path d="M117.4910 68.6509
L117.5243 68.6843
" />
<path d="M117.5243 68.6843
L117.5577 68.7509
" />
<path d="M117.5577 68.7509
L117.5577 68.8176
" />
<path d="M117.5577 68.8176
L117.5243 68.9176
" />
<path d="M117.5243 68.9176
L117.1243 69.3176
" />
<path d="M117.1243 69.3176
L117.5577 69.3176
" />
</g><text x="117.0000" y="68.1500"
textLength="3.4533" font-size="0.9333" lengthAdjust="spacingAndGlyphs"
text-anchor="middle" opacity="0" stroke-opacity="0">100nF</text>
<g class="stroked-text"><desc>100nF</desc>
<path d="M115.9167 68.1176
L115.5167 68.1176
" />
<path d="M115.7167 68.1176
L115.7167 67.4176
" />
<path d="M115.7167 67.4176
L115.6500 67.5176
" />
<path d="M115.6500 67.5176
L115.5833 67.5843
" />
<path d="M115.5833 67.5843
L115.5167 67.6176
" />
<path d="M116.3500 67.4176
L116.4167 67.4176
" />
<path d="M116.4167 67.4176
L116.4833 67.4509
" />
<path d="M116.4833 67.4509
L116.5167 67.4843
" />
<path d="M116.5167 67.4843
L116.5500 67.5509
" />
<path d="M116.5500 67.5509
L116.5833 67.6843
" />
<path d="M116.5833 67.6843
L116.5833 67.8509
" />
<path d="M116.5833 67.8509
L116.5500 67.9843
" />
<path d="M116.5500 67.9843
L116.5167 68.0509
" />
<path d="M116.5167 68.0509
L116.4833 68.0843
" />
<path d="M116.4833 68.0843
L116.4167 68.1176
" />
<path d="M116.4167 68.1176
L116.3500 68.1176
" />
<path d="M116.3500 68.1176
L116.2833 68.0843
" />
<path d="M116.2833 68.0843
L116.2500 68.0509
" />
<path d="M116.2500 68.0509
L116.2167 67.9843
" />
<path d="M116.2167 67.9843
L116.1833 67.8509
" />
<path d="M116.1833 67.8509
L116.1833 67.6843
" />
<path d="M116.1833 67.6843
L116.2167 67.5509
" />
<path d="M116.2167 67.5509
L116.2500 67.4843
" />
<path d="M116.2500 67.4843
L116.2833 67.4509
" />
<path d="M116.2833 67.4509
L116.3500 67.4176
" />
<path d="M117.0167 67.4176
L117.0833 67.4176
" />
<path d="M117.0833 67.4176
L117.1500 67.4509
" />
<path d="M117.1500 67.4509
L117.1833 67.4843
" />
<path d="M117.1833 67.4843
L117.2167 67.5509
" />
<path d="M117.2167 67.5509
L117.2500 67.6843
" />
<path d="M117.2500 67.6843
L117.2500 67.8509
" />
<path d="M117.2500 67.8509
L117.2167 67.9843
" />
<path d="M117.2167 67.9843
L117.1833 68.0509
" />
<path d="M117.1833 68.0509
L117.1500 68.0843
" />
<path d="M117.1500 68.0843
L117.0833 68.1176
" />
<path d="M117.0833 68.1176
L117.0167 68.1176
" />
<path d="M117.0167 68.1176
L116.9500 68.0843
" />
<path d="M116.9500 68.0843
L116.9167 68.0509
" />
<path d="M116.9167 68.0509
L116.8833 67.9843
" />
<path d="M116.8833 67.9843
L116.8500 67.8509
" />
<path d="M116.8500 67.8509
L116.8500 67.6843
" />
<path d="M116.8500 67.6843
L116.8833 67.5509
" />
<path d="M116.8833 67.5509
L116.9167 67.4843
" />
<path d="M116.9167 67.4843
L116.9500 67.4509
" />
<path d="M116.9500 67.4509
L117.0167 67.4176
" />
<path d="M117.5500 67.6509
L117.5500 68.1176
" />
<path d="M117.5500 67.7176
L117.5833 67.6843
" />
<path d="M117.5833 67.6843
L117.6500 67.6509
" />
<path d="M117.6500 67.6509
L117.7500 67.6509
" />
<path d="M117.7500 67.6509
L117.8167 67.6843
" />
<path d="M117.8167 67.6843
L117.8500 67.7509
" />
<path d="M117.8500 67.7509
L117.8500 68.1176
" />
<path d="M118.4167 67.7509
L118.1833 67.7509
" />
<path d="M118.1833 68.1176
L118.1833 67.4176
" />
<path d="M118.1833 67.4176
L118.5167 67.4176
" />
</g><text x="123.0000" y="69.3500"
textLength="1.5867" font-size="0.9333" lengthAdjust="spacingAndGlyphs"
text-anchor="middle" opacity="0" stroke-opacity="0">C3</text>
<g class="stroked-text"><desc>C3</desc>
<path d="M122.8833 69.2509
L122.8500 69.2843
" />
<path d="M122.8500 69.2843
L122.7500 69.3176
" />
<path d="M122.7500 69.3176
L122.6833 69.3176
" />
<path d="M122.6833 69.3176
L122.5833 69.2843
" />
<path d="M122.5833 69.2843
L122.5167 69.2176
" />
<path d="M122.5167 69.2176
L122.4833 69.1509
" />
<path d="M122.4833 69.1509
L122.4500 69.0176
" />
<path d="M122.4500 69.0176
L122.4500 68.9176
" />
<path d="M122.4500 68.9176
L122.4833 68.7843
" />
<path d="M122.4833 68.7843
L122.5167 68.7176
" />
<path d="M122.5167 68.7176
L122.5833 68.6509
" />
<path d="M122.5833 68.6509
L122.6833 68.6176
" />
<path d="M122.6833 68.6176
L122.7500 68.6176
" />
<path d="M122.7500 68.6176
L122.8500 68.6509
" />
<path d="M122.8500 68.6509
L122.8833 68.6843
" />
<path d="M123.1167 68.6176
L123.5500 68.6176
" />
<path d="M123.5500 68.6176
L123.3167 68.8843
" />
<path d="M123.3167 68.8843
L123.4167 68.8843
" />
<path d="M123.4167 68.8843
L123.4833 68.9176
" />
<path d="M123.4833 68.9176
L123.5167 68.9509
" />
<path d="M123.5167 68.9509
L123.5500 69.0176
" />
<path d="M123.5500 69.0176
L123.5500 69.1843
" />
<path d="M123.5500 69.1843
L123.5167 69.2509
" />
<path d="M123.5167 69.2509
L123.4833 69.2843
" />
<path d="M123.4833 69.2843
L123.4167 69.3176
" />
<path d="M123.4167 69.3176
L123.2167 69.3176
" />
<path d="M123.2167 69.3176
L123.1500 69.2843
" />
<path d="M123.1500 69.2843
L123.1167 69.2509
" />
</g><g transform="rotate(-90.000000 126.0000 69.0000)">
<text x="126.0000" y="69.3500"
textLength="2.7867" font-size="0.9333" lengthAdjust="spacingAndGlyphs"
text-anchor="middle" opacity="0" stroke-opacity="0">10uF</text>
</g>
<g class="stroked-text"><desc>10uF</desc>
<path d="M126.3176 69.7500
L126.3176 70.1500
" />
<path d="M126.3176 69.9500
L125.6176 69.9500
" />
<path d="M125.6176 69.9500
L125.7176 70.0167
" />
<path d="M125.7176 70.0167
L125.7843 70.0833
" />
<path d="M125.7843 70.0833
L125.8176 70.1500
" />
<path d="M125.6176 69.3167
L125.6176 69.2500
" />
<path d="M125.6176 69.2500
L125.6509 69.1833
" />
<path d="M125.6509 69.1833
L125.6843 69.1500
" />
<path d="M125.6843 69.1500
L125.7509 69.1167
" />
<path d="M125.7509 69.1167
L125.8843 69.0833
" />
<path d="M125.8843 69.0833
L126.0509 69.0833
" />
<path d="M126.0509 69.0833
L126.1843 69.1167
" />
<path d="M126.1843 69.1167
L126.2509 69.1500
" />
<path d="M126.2509 69.1500
L126.2843 69.1833
" />
<path d="M126.2843 69.1833
L126.3176 69.2500
" />
<path d="M126.3176 69.2500
L126.3176 69.3167
" />
<path d="M126.3176 69.3167
L126.2843 69.3833
" />
<path d="M126.2843 69.3833
L126.2509 69.4167
" />
<path d="M126.2509 69.4167
L126.1843 69.4500
" />
<path d="M126.1843 69.4500
L126.0509 69.4833
" />
<path d="M126.0509 69.4833
L125.8843 69.4833
" />
<path d="M125.8843 69.4833
L125.7509 69.4500
" />
<path d="M125.7509 69.4500
L125.6843 69.4167
" />
<path d="M125.6843 69.4167
L125.6509 69.3833
" />
<path d="M125.6509 69.3833
L125.6176 69.3167
" />
<path d="M125.8509 68.4833
L126.3176 68.4833
" />
<path d="M125.8509 68.7833
L126.2176 68.7833
" />
<path d="M126.2176 68.7833
L126.2843 68.7500
" />
<path d="M126.2843 68.7500
L126.3176 68.6833
" />
<path d="M126.3176 68.6833
L126.3176 68.5833
" />
<path d="M126.3176 68.5833
L126.2843 68.5167
" />
<path d="M126.2843 68.5167
L126.2509 68.4833
" />
<path d="M125.9509 67.9167
L125.9509 68.1500
" />
<path d="M126.3176 68.1500
L125.6176 68.1500
" />
<path d="M125.6176 68.1500
L125.6176 67.8167
" />
</g><path d="M114.9000 67.2000
L119.1000 67.2000
" />
<path d="M119.1000 64.8000
L114.9000 64.8000
" />
<path d="M114.9000 64.8000 A1.9010 1.9010 0.0 0 0 114.9000 67.2000" />
<path d="M119.1000 67.2000 A1.8501 1.8501 0.0 0 0 119.1000 64.8000" />
<path d="M120.9000 67.2000
L125.1000 67.2000
" />
<path d="M125.1000 64.8000
L120.9000 64.8000
" />
<path d="M120.9000 64.8000 A1.8501 1.8501 0.0 0 0 120.9000 67.2000" />
<path d="M125.1000 67.2000 A1.9010 1.9010 0.0 0 0 125.1000 64.8000" />
<path d="M116.4000 70.4000
L116.4000 75.6000
" />
<path d="M116.4000 75.6000
L121.6000 75.6000
" />
<path d="M121.6000 70.4000
L116.4000 70.4000
" />
<path d="M121.6000 75.6000
L121.6000 70.4000
" />
<path d="M114.9000 70.2000
L119.1000 70.2000
" />
<path d="M119.1000 67.8000
L114.9000 67.8000
" />
<path d="M114.9000 67.8000 A1.9010 1.9010 0.0 0 0 114.9000 70.2000" />
<path d="M119.1000 70.2000 A1.8501 1.8501 0.0 0 0 119.1000 67.8000" />
<path d="M120.9000 70.2000
L125.1000 70.2000
" />
<path d="M125.1000 67.8000
L120.9000 67.8000
" />
<path d="M120.9000 67.8000 A1.8501 1.8501 0.0 0 0 120.9000 70.2000" />
<path d="M125.1000 70.2000 A1.9010 1.9010 0.0 0 0 125.1000 67.8000" />
<path d="M115.5900 61.1700
L115.5900 63.8300
" />
<path d="M120.7300 61.1700
L115.5900 61.1700
" />
<path d="M120.7300 61.1700
L120.7300 63.8300
" />
<path d="M120.7300 63.8300
L115.5900 63.8300
" />
<path d="M122.0000 61.1700
L123.3300 61.1700
" />
<path d="M123.3300 61.1700
L123.3300 62.5000
" />
</g> 
</svg>
