<?xml version="1.0" standalone="no"?>
 <!DOCTYPE svg PUBLIC "-//W3C//DTD SVG 1.1//EN" 
 "http://www.w3.org/Graphics/SVG/1.1/DTD/svg11.dtd"> 
<svg
  xmlns:svg="http://www.w3.org/2000/svg"
  xmlns="http://www.w3.org/2000/svg"
  xmlns:xlink="http://www.w3.org/1999/xlink"
  version="1.1"
  width="17.0942mm" height="19.0754mm" viewBox="0.0000 0.0000 17.0942 19.0754">
<title>SVG Image created as HT7333-Edge_Cuts.svg date 2025/05/20 07:33:57 </title>
  <desc>Image generated by PCBNEW </desc>
<g style="fill:#000000; fill-opacity:1.0000;stroke:#000000; stroke-opacity:1.0000;
stroke-linecap:round; stroke-linejoin:round;"
 transform="translate(0 0) scale(1 1)">
<path style="fill:none; 
stroke:#D0D2CD; stroke-width:0.0500; stroke-opacity:1; 
stroke-linecap:round; stroke-linejoin:round;fill:none"
d="M 0.0500,0.0500
17.0500,0.0500
17.0500,19.0500
0.0500,19.0500
Z" /> 
<path style="fill:#4D7FC4; fill-opacity:1.0000; stroke:none;fill-rule:evenodd;"
d="M 9.2000,2.7000
10.9000,2.7000
10.9000,4.4000
9.2000,4.4000
Z" /> 
</g>
<g style="fill:#4D7FC4; fill-opacity:1.0000; stroke:none;">
<circle cx="7.5100" cy="3.5500" r="0.8500" /> 
<circle cx="4.9700" cy="3.5500" r="0.8500" /> 
<path style="fill:#4D7FC4; fill-opacity:1.0000; stroke:none;fill-rule:evenodd;"
d="M 4.4000,12.3000
4.3043,12.2810
4.2232,12.2268
4.1690,12.1457
4.1500,12.0500
4.1500,10.0500
4.1690,9.9543
4.2232,9.8732
4.3043,9.8190
4.4000,9.8000
5.7000,9.8000
5.7957,9.8190
5.8768,9.8732
5.9310,9.9543
5.9500,10.0500
5.9500,12.0500
5.9310,12.1457
5.8768,12.2268
5.7957,12.2810
5.7000,12.3000
Z" /> 
<path style="fill:#4D7FC4; fill-opacity:1.0000; stroke:none;fill-rule:evenodd;"
d="M 4.4000,8.3000
4.3043,8.2810
4.2232,8.2268
4.1690,8.1457
4.1500,8.0500
4.1500,6.0500
4.1690,5.9543
4.2232,5.8732
4.3043,5.8190
4.4000,5.8000
5.7000,5.8000
5.7957,5.8190
5.8768,5.8732
5.9310,5.9543
5.9500,6.0500
5.9500,8.0500
5.9310,8.1457
5.8768,8.2268
5.7957,8.2810
5.7000,8.3000
Z" /> 
<path style="fill:#4D7FC4; fill-opacity:1.0000; stroke:none;fill-rule:evenodd;"
d="M 9.7500,10.0000
9.6543,9.9810
9.5732,9.9268
9.5190,9.8457
9.5000,9.7500
9.5000,9.1500
9.5190,9.0543
9.5732,8.9732
9.6543,8.9190
9.7500,8.9000
10.3500,8.9000
10.4457,8.9190
10.5268,8.9732
10.5810,9.0543
10.6000,9.1500
10.6000,9.7500
10.5810,9.8457
10.5268,9.9268
10.4457,9.9810
10.3500,10.0000
Z" /> 
<path style="fill:#4D7FC4; fill-opacity:1.0000; stroke:none;fill-rule:evenodd;"
d="M 9.7500,7.2000
9.6543,7.1810
9.5732,7.1268
9.5190,7.0457
9.5000,6.9500
9.5000,6.3500
9.5190,6.2543
9.5732,6.1732
9.6543,6.1190
9.7500,6.1000
10.3500,6.1000
10.4457,6.1190
10.5268,6.1732
10.5810,6.2543
10.6000,6.3500
10.6000,6.9500
10.5810,7.0457
10.5268,7.1268
10.4457,7.1810
10.3500,7.2000
Z" /> 
</g>
<g style="fill:none; 
stroke:#4D7FC4; stroke-width:1.5000; stroke-opacity:1; 
stroke-linecap:round; stroke-linejoin:round;">
<path d="M4.9700 3.5500
L4.9700 6.9700
" />
<path d="M4.9700 6.9700
L5.0500 7.0500
" />
<path d="M7.5100 3.5500
L7.5100 8.5900
" />
<path d="M10.0500 9.4500
L8.3700 9.4500
" />
<path d="M8.3700 9.4500
L7.5100 8.5900
" />
<path d="M7.5100 8.5900
L5.0500 11.0500
" />
<path d="M10.0500 3.5500
L10.0500 6.6500
" />
<path style="fill:#4D7FC4; fill-opacity:1.0000; stroke:none;fill-rule:evenodd;"
d="M 16.4925,0.5702
16.5383,0.6230
16.5495,0.6745
16.5495,18.4255
16.5298,18.4925
16.4770,18.5383
16.4255,18.5495
0.6745,18.5495
0.6075,18.5298
0.5617,18.4770
0.5505,18.4255
0.5505,3.4437
3.6195,3.4437
3.6195,3.6563
3.6528,3.8662
3.7134,4.0530
3.7195,4.0913
3.7195,5.6976
3.7132,5.7366
3.6600,5.8972
3.6600,5.8972
3.6495,6.0000
3.6495,8.1000
3.6495,8.1000
3.6600,8.2028
3.6600,8.2028
3.7152,8.3693
3.7152,8.3693
3.8073,8.5187
3.9313,8.6427
4.0807,8.7348
4.2472,8.7900
4.3500,8.8005
5.7500,8.8005
5.8528,8.7900
6.0193,8.7348
6.1687,8.6427
6.2927,8.5187
6.3848,8.3693
6.4400,8.2028
6.4505,8.1000
6.4505,6.0000
6.4400,5.8972
6.3848,5.7307
6.2927,5.5813
6.2568,5.5455
6.2233,5.4841
6.2205,5.4578
6.2205,4.0913
6.2266,4.0530
6.2447,3.9972
6.2872,3.8662
6.3205,3.6563
6.3205,3.4437
6.2872,3.2338
6.2216,3.0316
6.1251,2.8422
6.0001,2.6702
5.9820,2.6521
8.6995,2.6521
8.6995,4.4479
8.6995,4.4479
8.7059,4.5075
8.7562,4.6423
8.7748,4.6671
8.7992,4.7326
8.7995,4.7414
8.7995,6.7484
8.8303,6.9428
8.8911,7.1300
8.9805,7.3054
9.0962,7.4646
9.2354,7.6038
9.3946,7.7195
9.4775,7.7617
9.5700,7.8089
9.5700,7.8089
9.5700,7.8089
9.6703,7.8415
9.7572,7.8697
9.9516,7.9005
9.9516,7.9005
10.1484,7.9005
10.3428,7.8697
10.5300,7.8089
10.7054,7.7195
10.8646,7.6038
11.0038,7.4646
11.1195,7.3054
11.2089,7.1300
11.2697,6.9428
11.3005,6.7484
11.3005,4.7414
11.3202,4.6744
11.3252,4.6671
11.3438,4.6423
11.3941,4.5075
11.4005,4.4479
11.4005,2.6521
11.3941,2.5925
11.3438,2.4577
11.3438,2.4577
11.3438,2.4577
11.2575,2.3425
11.2575,2.3425
11.1423,2.2562
11.1423,2.2562
11.0075,2.2059
11.0075,2.2059
10.9479,2.1995
10.9479,2.1995
10.9479,2.1995
10.9479,2.1995
9.1521,2.1995
9.1521,2.1995
9.0925,2.2059
8.9577,2.2562
8.9577,2.2562
8.8425,2.3425
8.8425,2.3425
8.7562,2.4577
8.7562,2.4577
8.7059,2.5925
8.6995,2.6521
8.6995,2.6521
8.6995,2.6521
5.9820,2.6521
5.8498,2.5199
5.8498,2.5199
5.6778,2.3950
5.4884,2.2984
5.4884,2.2984
5.4884,2.2984
5.2862,2.2328
5.2862,2.2328
5.2862,2.2328
5.1250,2.2072
5.0763,2.1995
4.8637,2.1995
4.8150,2.2072
4.6538,2.2328
4.4516,2.2984
4.2622,2.3950
4.0902,2.5199
3.9399,2.6702
3.8150,2.8422
3.7184,3.0316
3.6528,3.2338
3.6195,3.4437
0.5505,3.4437
0.5505,0.6745
0.5702,0.6075
0.6230,0.5617
0.6745,0.5505
16.4255,0.5505
Z" /> 
<path style="fill:#02FFEE; fill-opacity:0.4000; stroke:none;fill-rule:evenodd;"
d="M 9.2000,2.7000
10.9000,2.7000
10.9000,4.4000
9.2000,4.4000
Z" /> 
</g>
<g style="fill:#02FFEE; fill-opacity:0.4000; stroke:none;">
<circle cx="7.5100" cy="3.5500" r="0.8500" /> 
<circle cx="4.9700" cy="3.5500" r="0.8500" /> 
<path style="fill:#02FFEE; fill-opacity:0.4000; stroke:none;fill-rule:evenodd;"
d="M 4.4000,12.3000
4.3043,12.2810
4.2232,12.2268
4.1690,12.1457
4.1500,12.0500
4.1500,10.0500
4.1690,9.9543
4.2232,9.8732
4.3043,9.8190
4.4000,9.8000
5.7000,9.8000
5.7957,9.8190
5.8768,9.8732
5.9310,9.9543
5.9500,10.0500
5.9500,12.0500
5.9310,12.1457
5.8768,12.2268
5.7957,12.2810
5.7000,12.3000
Z" /> 
<path style="fill:#02FFEE; fill-opacity:0.4000; stroke:none;fill-rule:evenodd;"
d="M 4.4000,8.3000
4.3043,8.2810
4.2232,8.2268
4.1690,8.1457
4.1500,8.0500
4.1500,6.0500
4.1690,5.9543
4.2232,5.8732
4.3043,5.8190
4.4000,5.8000
5.7000,5.8000
5.7957,5.8190
5.8768,5.8732
5.9310,5.9543
5.9500,6.0500
5.9500,8.0500
5.9310,8.1457
5.8768,8.2268
5.7957,8.2810
5.7000,8.3000
Z" /> 
<path style="fill:#02FFEE; fill-opacity:0.4000; stroke:none;fill-rule:evenodd;"
d="M 9.7500,10.0000
9.6543,9.9810
9.5732,9.9268
9.5190,9.8457
9.5000,9.7500
9.5000,9.1500
9.5190,9.0543
9.5732,8.9732
9.6543,8.9190
9.7500,8.9000
10.3500,8.9000
10.4457,8.9190
10.5268,8.9732
10.5810,9.0543
10.6000,9.1500
10.6000,9.7500
10.5810,9.8457
10.5268,9.9268
10.4457,9.9810
10.3500,10.0000
Z" /> 
<path style="fill:#02FFEE; fill-opacity:0.4000; stroke:none;fill-rule:evenodd;"
d="M 9.7500,7.2000
9.6543,7.1810
9.5732,7.1268
9.5190,7.0457
9.5000,6.9500
9.5000,6.3500
9.5190,6.2543
9.5732,6.1732
9.6543,6.1190
9.7500,6.1000
10.3500,6.1000
10.4457,6.1190
10.5268,6.1732
10.5810,6.2543
10.6000,6.3500
10.6000,6.9500
10.5810,7.0457
10.5268,7.1268
10.4457,7.1810
10.3500,7.2000
Z" /> 
<path style="fill:#00C2C2; fill-opacity:0.9000; stroke:none;fill-rule:evenodd;"
d="M 4.4000,12.3000
4.3043,12.2810
4.2232,12.2268
4.1690,12.1457
4.1500,12.0500
4.1500,10.0500
4.1690,9.9543
4.2232,9.8732
4.3043,9.8190
4.4000,9.8000
5.7000,9.8000
5.7957,9.8190
5.8768,9.8732
5.9310,9.9543
5.9500,10.0500
5.9500,12.0500
5.9310,12.1457
5.8768,12.2268
5.7957,12.2810
5.7000,12.3000
Z" /> 
<path style="fill:#00C2C2; fill-opacity:0.9000; stroke:none;fill-rule:evenodd;"
d="M 4.4000,8.3000
4.3043,8.2810
4.2232,8.2268
4.1690,8.1457
4.1500,8.0500
4.1500,6.0500
4.1690,5.9543
4.2232,5.8732
4.3043,5.8190
4.4000,5.8000
5.7000,5.8000
5.7957,5.8190
5.8768,5.8732
5.9310,5.9543
5.9500,6.0500
5.9500,8.0500
5.9310,8.1457
5.8768,8.2268
5.7957,8.2810
5.7000,8.3000
Z" /> 
<path style="fill:#00C2C2; fill-opacity:0.9000; stroke:none;fill-rule:evenodd;"
d="M 9.7500,10.0000
9.6543,9.9810
9.5732,9.9268
9.5190,9.8457
9.5000,9.7500
9.5000,9.1500
9.5190,9.0543
9.5732,8.9732
9.6543,8.9190
9.7500,8.9000
10.3500,8.9000
10.4457,8.9190
10.5268,8.9732
10.5810,9.0543
10.6000,9.1500
10.6000,9.7500
10.5810,9.8457
10.5268,9.9268
10.4457,9.9810
10.3500,10.0000
Z" /> 
<path style="fill:#00C2C2; fill-opacity:0.9000; stroke:none;fill-rule:evenodd;"
d="M 9.7500,7.2000
9.6543,7.1810
9.5732,7.1268
9.5190,7.0457
9.5000,6.9500
9.5000,6.3500
9.5190,6.2543
9.5732,6.1732
9.6543,6.1190
9.7500,6.1000
10.3500,6.1000
10.4457,6.1190
10.5268,6.1732
10.5810,6.2543
10.6000,6.3500
10.6000,6.9500
10.5810,7.0457
10.5268,7.1268
10.4457,7.1810
10.3500,7.2000
Z" /> 
</g>
<g style="fill:none; 
stroke:#E8B2A7; stroke-width:0.1200; stroke-opacity:1; 
stroke-linecap:round; stroke-linejoin:round;">
<g transform="rotate(-90.000000 5.0500 9.0500)">
<text x="5.0500" y="9.4000"
transform="scale(-1 1) translate(-10.100000 0)"
textLength="1.5867" font-size="0.9333" lengthAdjust="spacingAndGlyphs"
text-anchor="middle" opacity="0" stroke-opacity="0">D1</text>
</g>
<g class="stroked-text"><desc>D1</desc>
<path d="M5.3676 8.5333
L4.6676 8.5333
" />
<path d="M4.6676 8.5333
L4.6676 8.7000
" />
<path d="M4.6676 8.7000
L4.7009 8.8000
" />
<path d="M4.7009 8.8000
L4.7676 8.8667
" />
<path d="M4.7676 8.8667
L4.8343 8.9000
" />
<path d="M4.8343 8.9000
L4.9676 8.9333
" />
<path d="M4.9676 8.9333
L5.0676 8.9333
" />
<path d="M5.0676 8.9333
L5.2009 8.9000
" />
<path d="M5.2009 8.9000
L5.2676 8.8667
" />
<path d="M5.2676 8.8667
L5.3343 8.8000
" />
<path d="M5.3343 8.8000
L5.3676 8.7000
" />
<path d="M5.3676 8.7000
L5.3676 8.5333
" />
<path d="M5.3676 9.6000
L5.3676 9.2000
" />
<path d="M5.3676 9.4000
L4.6676 9.4000
" />
<path d="M4.6676 9.4000
L4.7676 9.3333
" />
<path d="M4.7676 9.3333
L4.8343 9.2667
" />
<path d="M4.8343 9.2667
L4.8676 9.2000
" />
</g><g transform="rotate(-90.000000 8.0500 9.0500)">
<text x="8.0500" y="9.4000"
transform="scale(-1 1) translate(-16.100000 0)"
textLength="5.4533" font-size="0.9333" lengthAdjust="spacingAndGlyphs"
text-anchor="middle" opacity="0" stroke-opacity="0">SMAJ12CA</text>
</g>
<g class="stroked-text"><desc>SMAJ12CA</desc>
<path d="M8.3343 6.5667
L8.3676 6.6667
" />
<path d="M8.3676 6.6667
L8.3676 6.8333
" />
<path d="M8.3676 6.8333
L8.3343 6.9000
" />
<path d="M8.3343 6.9000
L8.3009 6.9333
" />
<path d="M8.3009 6.9333
L8.2343 6.9667
" />
<path d="M8.2343 6.9667
L8.1676 6.9667
" />
<path d="M8.1676 6.9667
L8.1009 6.9333
" />
<path d="M8.1009 6.9333
L8.0676 6.9000
" />
<path d="M8.0676 6.9000
L8.0343 6.8333
" />
<path d="M8.0343 6.8333
L8.0009 6.7000
" />
<path d="M8.0009 6.7000
L7.9676 6.6333
" />
<path d="M7.9676 6.6333
L7.9343 6.6000
" />
<path d="M7.9343 6.6000
L7.8676 6.5667
" />
<path d="M7.8676 6.5667
L7.8009 6.5667
" />
<path d="M7.8009 6.5667
L7.7343 6.6000
" />
<path d="M7.7343 6.6000
L7.7009 6.6333
" />
<path d="M7.7009 6.6333
L7.6676 6.7000
" />
<path d="M7.6676 6.7000
L7.6676 6.8667
" />
<path d="M7.6676 6.8667
L7.7009 6.9667
" />
<path d="M8.3676 7.2667
L7.6676 7.2667
" />
<path d="M7.6676 7.2667
L8.1676 7.5000
" />
<path d="M8.1676 7.5000
L7.6676 7.7333
" />
<path d="M7.6676 7.7333
L8.3676 7.7333
" />
<path d="M8.1676 8.0333
L8.1676 8.3667
" />
<path d="M8.3676 7.9667
L7.6676 8.2000
" />
<path d="M7.6676 8.2000
L8.3676 8.4333
" />
<path d="M7.6676 8.8667
L8.1676 8.8667
" />
<path d="M8.1676 8.8667
L8.2676 8.8333
" />
<path d="M8.2676 8.8333
L8.3343 8.7667
" />
<path d="M8.3343 8.7667
L8.3676 8.6667
" />
<path d="M8.3676 8.6667
L8.3676 8.6000
" />
<path d="M8.3676 9.5667
L8.3676 9.1667
" />
<path d="M8.3676 9.3667
L7.6676 9.3667
" />
<path d="M7.6676 9.3667
L7.7676 9.3000
" />
<path d="M7.7676 9.3000
L7.8343 9.2333
" />
<path d="M7.8343 9.2333
L7.8676 9.1667
" />
<path d="M7.7343 9.8333
L7.7009 9.8667
" />
<path d="M7.7009 9.8667
L7.6676 9.9333
" />
<path d="M7.6676 9.9333
L7.6676 10.1000
" />
<path d="M7.6676 10.1000
L7.7009 10.1667
" />
<path d="M7.7009 10.1667
L7.7343 10.2000
" />
<path d="M7.7343 10.2000
L7.8009 10.2333
" />
<path d="M7.8009 10.2333
L7.8676 10.2333
" />
<path d="M7.8676 10.2333
L7.9676 10.2000
" />
<path d="M7.9676 10.2000
L8.3676 9.8000
" />
<path d="M8.3676 9.8000
L8.3676 10.2333
" />
<path d="M8.3009 10.9333
L8.3343 10.9000
" />
<path d="M8.3343 10.9000
L8.3676 10.8000
" />
<path d="M8.3676 10.8000
L8.3676 10.7333
" />
<path d="M8.3676 10.7333
L8.3343 10.6333
" />
<path d="M8.3343 10.6333
L8.2676 10.5667
" />
<path d="M8.2676 10.5667
L8.2009 10.5333
" />
<path d="M8.2009 10.5333
L8.0676 10.5000
" />
<path d="M8.0676 10.5000
L7.9676 10.5000
" />
<path d="M7.9676 10.5000
L7.8343 10.5333
" />
<path d="M7.8343 10.5333
L7.7676 10.5667
" />
<path d="M7.7676 10.5667
L7.7009 10.6333
" />
<path d="M7.7009 10.6333
L7.6676 10.7333
" />
<path d="M7.6676 10.7333
L7.6676 10.8000
" />
<path d="M7.6676 10.8000
L7.7009 10.9000
" />
<path d="M7.7009 10.9000
L7.7343 10.9333
" />
<path d="M8.1676 11.2000
L8.1676 11.5333
" />
<path d="M8.3676 11.1333
L7.6676 11.3667
" />
<path d="M7.6676 11.3667
L8.3676 11.6000
" />
</g><g transform="rotate(-90.000000 10.0500 8.0500)">
<text x="10.0500" y="8.4000"
transform="scale(-1 1) translate(-20.100000 0)"
textLength="1.5867" font-size="0.9333" lengthAdjust="spacingAndGlyphs"
text-anchor="middle" opacity="0" stroke-opacity="0">D2</text>
</g>
<g class="stroked-text"><desc>D2</desc>
<path d="M10.3676 7.5333
L9.6676 7.5333
" />
<path d="M9.6676 7.5333
L9.6676 7.7000
" />
<path d="M9.6676 7.7000
L9.7009 7.8000
" />
<path d="M9.7009 7.8000
L9.7676 7.8667
" />
<path d="M9.7676 7.8667
L9.8343 7.9000
" />
<path d="M9.8343 7.9000
L9.9676 7.9333
" />
<path d="M9.9676 7.9333
L10.0676 7.9333
" />
<path d="M10.0676 7.9333
L10.2009 7.9000
" />
<path d="M10.2009 7.9000
L10.2676 7.8667
" />
<path d="M10.2676 7.8667
L10.3343 7.8000
" />
<path d="M10.3343 7.8000
L10.3676 7.7000
" />
<path d="M10.3676 7.7000
L10.3676 7.5333
" />
<path d="M9.7343 8.2000
L9.7009 8.2333
" />
<path d="M9.7009 8.2333
L9.6676 8.3000
" />
<path d="M9.6676 8.3000
L9.6676 8.4667
" />
<path d="M9.6676 8.4667
L9.7009 8.5333
" />
<path d="M9.7009 8.5333
L9.7343 8.5667
" />
<path d="M9.7343 8.5667
L9.8009 8.6000
" />
<path d="M9.8009 8.6000
L9.8676 8.6000
" />
<path d="M9.8676 8.6000
L9.9676 8.5667
" />
<path d="M9.9676 8.5667
L10.3676 8.1667
" />
<path d="M10.3676 8.1667
L10.3676 8.6000
" />
</g><g transform="rotate(-90.000000 12.0500 8.0500)">
<text x="12.0500" y="8.4000"
transform="scale(-1 1) translate(-24.100000 0)"
textLength="5.2533" font-size="0.9333" lengthAdjust="spacingAndGlyphs"
text-anchor="middle" opacity="0" stroke-opacity="0">SMF3.3CA</text>
</g>
<g class="stroked-text"><desc>SMF3.3CA</desc>
<path d="M12.3343 5.6667
L12.3676 5.7667
" />
<path d="M12.3676 5.7667
L12.3676 5.9333
" />
<path d="M12.3676 5.9333
L12.3343 6.0000
" />
<path d="M12.3343 6.0000
L12.3009 6.0333
" />
<path d="M12.3009 6.0333
L12.2343 6.0667
" />
<path d="M12.2343 6.0667
L12.1676 6.0667
" />
<path d="M12.1676 6.0667
L12.1009 6.0333
" />
<path d="M12.1009 6.0333
L12.0676 6.0000
" />
<path d="M12.0676 6.0000
L12.0343 5.9333
" />
<path d="M12.0343 5.9333
L12.0009 5.8000
" />
<path d="M12.0009 5.8000
L11.9676 5.7333
" />
<path d="M11.9676 5.7333
L11.9343 5.7000
" />
<path d="M11.9343 5.7000
L11.8676 5.6667
" />
<path d="M11.8676 5.6667
L11.8009 5.6667
" />
<path d="M11.8009 5.6667
L11.7343 5.7000
" />
<path d="M11.7343 5.7000
L11.7009 5.7333
" />
<path d="M11.7009 5.7333
L11.6676 5.8000
" />
<path d="M11.6676 5.8000
L11.6676 5.9667
" />
<path d="M11.6676 5.9667
L11.7009 6.0667
" />
<path d="M12.3676 6.3667
L11.6676 6.3667
" />
<path d="M11.6676 6.3667
L12.1676 6.6000
" />
<path d="M12.1676 6.6000
L11.6676 6.8333
" />
<path d="M11.6676 6.8333
L12.3676 6.8333
" />
<path d="M12.0009 7.4000
L12.0009 7.1667
" />
<path d="M12.3676 7.1667
L11.6676 7.1667
" />
<path d="M11.6676 7.1667
L11.6676 7.5000
" />
<path d="M11.6676 7.7000
L11.6676 8.1333
" />
<path d="M11.6676 8.1333
L11.9343 7.9000
" />
<path d="M11.9343 7.9000
L11.9343 8.0000
" />
<path d="M11.9343 8.0000
L11.9676 8.0667
" />
<path d="M11.9676 8.0667
L12.0009 8.1000
" />
<path d="M12.0009 8.1000
L12.0676 8.1333
" />
<path d="M12.0676 8.1333
L12.2343 8.1333
" />
<path d="M12.2343 8.1333
L12.3009 8.1000
" />
<path d="M12.3009 8.1000
L12.3343 8.0667
" />
<path d="M12.3343 8.0667
L12.3676 8.0000
" />
<path d="M12.3676 8.0000
L12.3676 7.8000
" />
<path d="M12.3676 7.8000
L12.3343 7.7333
" />
<path d="M12.3343 7.7333
L12.3009 7.7000
" />
<path d="M12.3009 8.4333
L12.3343 8.4667
" />
<path d="M12.3343 8.4667
L12.3676 8.4333
" />
<path d="M12.3676 8.4333
L12.3343 8.4000
" />
<path d="M12.3343 8.4000
L12.3009 8.4333
" />
<path d="M12.3009 8.4333
L12.3676 8.4333
" />
<path d="M11.6676 8.7000
L11.6676 9.1333
" />
<path d="M11.6676 9.1333
L11.9343 8.9000
" />
<path d="M11.9343 8.9000
L11.9343 9.0000
" />
<path d="M11.9343 9.0000
L11.9676 9.0667
" />
<path d="M11.9676 9.0667
L12.0009 9.1000
" />
<path d="M12.0009 9.1000
L12.0676 9.1333
" />
<path d="M12.0676 9.1333
L12.2343 9.1333
" />
<path d="M12.2343 9.1333
L12.3009 9.1000
" />
<path d="M12.3009 9.1000
L12.3343 9.0667
" />
<path d="M12.3343 9.0667
L12.3676 9.0000
" />
<path d="M12.3676 9.0000
L12.3676 8.8000
" />
<path d="M12.3676 8.8000
L12.3343 8.7333
" />
<path d="M12.3343 8.7333
L12.3009 8.7000
" />
<path d="M12.3009 9.8333
L12.3343 9.8000
" />
<path d="M12.3343 9.8000
L12.3676 9.7000
" />
<path d="M12.3676 9.7000
L12.3676 9.6333
" />
<path d="M12.3676 9.6333
L12.3343 9.5333
" />
<path d="M12.3343 9.5333
L12.2676 9.4667
" />
<path d="M12.2676 9.4667
L12.2009 9.4333
" />
<path d="M12.2009 9.4333
L12.0676 9.4000
" />
<path d="M12.0676 9.4000
L11.9676 9.4000
" />
<path d="M11.9676 9.4000
L11.8343 9.4333
" />
<path d="M11.8343 9.4333
L11.7676 9.4667
" />
<path d="M11.7676 9.4667
L11.7009 9.5333
" />
<path d="M11.7009 9.5333
L11.6676 9.6333
" />
<path d="M11.6676 9.6333
L11.6676 9.7000
" />
<path d="M11.6676 9.7000
L11.7009 9.8000
" />
<path d="M11.7009 9.8000
L11.7343 9.8333
" />
<path d="M12.1676 10.1000
L12.1676 10.4333
" />
<path d="M12.3676 10.0333
L11.6676 10.2667
" />
<path d="M11.6676 10.2667
L12.3676 10.5000
" />
</g><path d="M3.2500 5.4500
L6.8500 5.4500
" />
<path d="M3.2500 12.6500
L3.2500 5.4500
" />
<path d="M6.8500 5.4500
L6.8500 12.6500
" />
<path d="M6.8500 12.6500
L3.2500 12.6500
" />
<path d="M8.8500 5.7500
L11.2500 5.7500
" />
<path d="M8.8500 10.3500
L8.8500 5.7500
" />
<path d="M11.2500 5.7500
L11.2500 10.3500
" />
<path d="M11.2500 10.3500
L8.8500 10.3500
" />
<path style="fill:#E8B2A7; fill-opacity:1.0000; 
stroke:#E8B2A7; stroke-width:0.1000; stroke-opacity:1; 
stroke-linecap:round; stroke-linejoin:round;fill-rule:evenodd;"
d="M 8.8500,9.4500
8.5500,9.4500
8.5500,8.6500
8.8500,8.6500
Z" /> 
<path style="fill:#E8B2A7; fill-opacity:1.0000; 
stroke:#E8B2A7; stroke-width:0.1000; stroke-opacity:1; 
stroke-linecap:round; stroke-linejoin:round;fill-rule:evenodd;"
d="M 11.5500,9.4500
11.2500,9.4500
11.2500,8.6500
11.5500,8.6500
Z" /> 
<path style="fill:#C83434; fill-opacity:1.0000; stroke:none;fill-rule:evenodd;"
d="M 3.0000,6.4000
3.0190,6.3043
3.0732,6.2232
3.1543,6.1690
3.2500,6.1500
3.9000,6.1500
3.9957,6.1690
4.0768,6.2232
4.1310,6.3043
4.1500,6.4000
4.1500,7.7000
4.1310,7.7957
4.0768,7.8768
3.9957,7.9310
3.9000,7.9500
3.2500,7.9500
3.1543,7.9310
3.0732,7.8768
3.0190,7.7957
3.0000,7.7000
Z" /> 
<path style="fill:#C83434; fill-opacity:1.0000; stroke:none;fill-rule:evenodd;"
d="M 5.9500,6.4000
5.9690,6.3043
6.0232,6.2232
6.1043,6.1690
6.2000,6.1500
6.8500,6.1500
6.9457,6.1690
7.0268,6.2232
7.0810,6.3043
7.1000,6.4000
7.1000,7.7000
7.0810,7.7957
7.0268,7.8768
6.9457,7.9310
6.8500,7.9500
6.2000,7.9500
6.1043,7.9310
6.0232,7.8768
5.9690,7.7957
5.9500,7.7000
Z" /> 
<path style="fill:#C83434; fill-opacity:1.0000; stroke:none;fill-rule:evenodd;"
d="M 13.1000,7.7000
13.0810,7.7957
13.0268,7.8768
12.9457,7.9310
12.8500,7.9500
12.2000,7.9500
12.1043,7.9310
12.0232,7.8768
11.9690,7.7957
11.9500,7.7000
11.9500,6.4000
11.9690,6.3043
12.0232,6.2232
12.1043,6.1690
12.2000,6.1500
12.8500,6.1500
12.9457,6.1690
13.0268,6.2232
13.0810,6.3043
13.1000,6.4000
Z" /> 
<path style="fill:#C83434; fill-opacity:1.0000; stroke:none;fill-rule:evenodd;"
d="M 10.1500,7.7000
10.1310,7.7957
10.0768,7.8768
9.9957,7.9310
9.9000,7.9500
9.2500,7.9500
9.1543,7.9310
9.0732,7.8768
9.0190,7.7957
9.0000,7.7000
9.0000,6.4000
9.0190,6.3043
9.0732,6.2232
9.1543,6.1690
9.2500,6.1500
9.9000,6.1500
9.9957,6.1690
10.0768,6.2232
10.1310,6.3043
10.1500,6.4000
Z" /> 
<path style="fill:#C83434; fill-opacity:1.0000; stroke:none;fill-rule:evenodd;"
d="M 9.3500,15.7750
9.3329,15.8611
9.2841,15.9341
9.2111,15.9829
9.1250,16.0000
8.2750,16.0000
8.1889,15.9829
8.1159,15.9341
8.0671,15.8611
8.0500,15.7750
8.0500,15.3250
8.0671,15.2389
8.1159,15.1659
8.1889,15.1171
8.2750,15.1000
9.1250,15.1000
9.2111,15.1171
9.2841,15.1659
9.3329,15.2389
9.3500,15.3250
Z" /> 
<path style="fill:#C83434; fill-opacity:1.0000; stroke:none;fill-rule:evenodd;"
d="M 9.3500,14.2750
9.3329,14.3611
9.2841,14.4341
9.2111,14.4829
9.1250,14.5000
7.8750,14.5000
7.7889,14.4829
7.7159,14.4341
7.6671,14.3611
7.6500,14.2750
7.6500,13.8250
7.6671,13.7389
7.7159,13.6659
7.7889,13.6171
7.8750,13.6000
9.1250,13.6000
9.2111,13.6171
9.2841,13.6659
9.3329,13.7389
9.3500,13.8250
Z" /> 
<path style="fill:#C83434; fill-opacity:1.0000; stroke:none;fill-rule:evenodd;"
d="M 7.6225,13.1835
7.7182,13.2025
7.7993,13.2567
7.8535,13.3378
7.8725,13.4335
7.8725,14.6665
7.8535,14.7622
7.7993,14.8433
7.7182,14.8975
7.6225,14.9165
4.9975,14.9165
4.9018,14.8975
4.8207,14.8433
4.7665,14.7622
4.7475,14.6665
4.7475,13.4335
4.7665,13.3378
4.8207,13.2567
4.9018,13.2025
4.9975,13.1835
Z" /> 
<path style="fill:#C83434; fill-opacity:1.0000; stroke:none;fill-rule:evenodd;"
d="M 9.3500,12.7750
9.3329,12.8611
9.2841,12.9341
9.2111,12.9829
9.1250,13.0000
8.2750,13.0000
8.1889,12.9829
8.1159,12.9341
8.0671,12.8611
8.0500,12.7750
8.0500,12.3250
8.0671,12.2389
8.1159,12.1659
8.1889,12.1171
8.2750,12.1000
9.1250,12.1000
9.2111,12.1171
9.2841,12.1659
9.3329,12.2389
9.3500,12.3250
Z" /> 
<path style="fill:#C83434; fill-opacity:1.0000; stroke:none;fill-rule:evenodd;"
d="M 3.0000,9.4000
3.0190,9.3043
3.0732,9.2232
3.1543,9.1690
3.2500,9.1500
3.9000,9.1500
3.9957,9.1690
4.0768,9.2232
4.1310,9.3043
4.1500,9.4000
4.1500,10.7000
4.1310,10.7957
4.0768,10.8768
3.9957,10.9310
3.9000,10.9500
3.2500,10.9500
3.1543,10.9310
3.0732,10.8768
3.0190,10.7957
3.0000,10.7000
Z" /> 
<path style="fill:#C83434; fill-opacity:1.0000; stroke:none;fill-rule:evenodd;"
d="M 5.9500,9.4000
5.9690,9.3043
6.0232,9.2232
6.1043,9.1690
6.2000,9.1500
6.8500,9.1500
6.9457,9.1690
7.0268,9.2232
7.0810,9.3043
7.1000,9.4000
7.1000,10.7000
7.0810,10.7957
7.0268,10.8768
6.9457,10.9310
6.8500,10.9500
6.2000,10.9500
6.1043,10.9310
6.0232,10.8768
5.9690,10.7957
5.9500,10.7000
Z" /> 
<path style="fill:#C83434; fill-opacity:1.0000; stroke:none;fill-rule:evenodd;"
d="M 13.1000,10.7000
13.0810,10.7957
13.0268,10.8768
12.9457,10.9310
12.8500,10.9500
12.2000,10.9500
12.1043,10.9310
12.0232,10.8768
11.9690,10.7957
11.9500,10.7000
11.9500,9.4000
11.9690,9.3043
12.0232,9.2232
12.1043,9.1690
12.2000,9.1500
12.8500,9.1500
12.9457,9.1690
13.0268,9.2232
13.0810,9.3043
13.1000,9.4000
Z" /> 
<path style="fill:#C83434; fill-opacity:1.0000; stroke:none;fill-rule:evenodd;"
d="M 10.1500,10.7000
10.1310,10.7957
10.0768,10.8768
9.9957,10.9310
9.9000,10.9500
9.2500,10.9500
9.1543,10.9310
9.0732,10.8768
9.0190,10.7957
9.0000,10.7000
9.0000,9.4000
9.0190,9.3043
9.0732,9.2232
9.1543,9.1690
9.2500,9.1500
9.9000,9.1500
9.9957,9.1690
10.0768,9.2232
10.1310,9.3043
10.1500,9.4000
Z" /> 
<path style="fill:#C83434; fill-opacity:1.0000; stroke:none;fill-rule:evenodd;"
d="M 9.2000,2.7000
10.9000,2.7000
10.9000,4.4000
9.2000,4.4000
Z" /> 
</g>
<g style="fill:#C83434; fill-opacity:1.0000; stroke:none;">
<circle cx="7.5100" cy="3.5500" r="0.8500" /> 
<circle cx="4.9700" cy="3.5500" r="0.8500" /> 
</g>
<g style="fill:none; 
stroke:#C83434; stroke-width:1.5000; stroke-opacity:1; 
stroke-linecap:round; stroke-linejoin:round;">
<path d="M3.5750 7.0500
L3.5750 4.9450
" />
<path d="M3.5750 10.0500
L3.5750 11.3150
" />
<path d="M3.5750 11.3150
L6.3100 14.0500
" />
<path d="M3.5750 10.0500
L3.5750 7.0500
" />
<path d="M3.5750 4.9450
L4.9700 3.5500
" />
<path d="M8.2300 1.6600
L11.8400 1.6600
" />
<path d="M7.5100 3.5500
L7.5100 2.3800
" />
<path d="M11.8400 1.6600
L14.3800 4.2000
" />
<path d="M9.5750 10.0500
L9.5750 7.0500
" />
<path d="M7.5100 2.3800
L8.2300 1.6600
" />
<path d="M14.3800 4.2000
L14.3800 12.3000
" />
<path d="M11.1300 15.5500
L8.7000 15.5500
" />
<path d="M6.5250 10.0500
L6.5250 7.0500
" />
<path d="M6.5250 4.5350
L7.5100 3.5500
" />
<path d="M6.5250 7.0500
L6.5250 4.5350
" />
<path d="M9.5750 10.0500
L6.5250 10.0500
" />
<path d="M14.3800 12.3000
L11.1300 15.5500
" />
<path d="M7.5100 4.9850
L9.5750 7.0500
" />
<path d="M7.5100 3.5500
L7.5100 4.9850
" />
<path d="M12.5250 7.0500
L12.5250 6.0250
" />
<path d="M12.5250 10.0500
L12.5250 7.0500
" />
<path d="M11.3100 12.5500
L12.5250 11.3350
" />
<path d="M12.5250 6.0250
L10.0500 3.5500
" />
<path d="M8.7000 12.5500
L11.3100 12.5500
" />
<path d="M12.5250 11.3350
L12.5250 10.0500
" />
<path style="fill:#C83434; fill-opacity:1.0000; stroke:none;fill-rule:evenodd;"
d="M 16.4925,0.5702
16.5383,0.6230
16.5495,0.6745
16.5495,18.4255
16.5298,18.4925
16.4770,18.5383
16.4255,18.5495
0.6745,18.5495
0.6075,18.5298
0.5617,18.4770
0.5505,18.4255
0.5505,4.8466
2.3245,4.8466
2.3245,11.4134
2.3553,11.6078
2.4161,11.7950
2.5055,11.9704
2.6212,12.1296
2.6212,12.1296
4.2107,13.7192
4.2442,13.7805
4.2470,13.8068
4.2470,14.7165
4.2470,14.7165
4.2575,14.8193
4.2575,14.8193
4.2670,14.8480
4.3127,14.9858
4.4048,15.1352
4.5288,15.2592
4.6782,15.3513
4.8447,15.4065
4.9475,15.4170
7.6725,15.4170
7.7753,15.4065
7.9418,15.3513
8.0912,15.2592
8.2152,15.1352
8.2619,15.0594
8.3139,15.0127
8.3675,15.0005
9.1733,15.0005
9.1733,15.0005
9.1734,15.0005
9.1734,15.0005
9.2278,14.9949
9.2727,14.9903
9.4337,14.9370
9.5780,14.8480
9.6980,14.7280
9.7870,14.5837
9.8403,14.4227
9.8505,14.3233
9.8505,13.9245
9.8702,13.8575
9.9230,13.8117
9.9745,13.8005
11.4084,13.8005
11.6028,13.7697
11.7900,13.7089
11.9654,13.6195
12.1246,13.5038
13.4788,12.1496
13.5945,11.9904
13.6817,11.8194
13.6836,11.8160
13.6839,11.8150
13.7447,11.6278
13.7497,11.5962
13.7680,11.4805
13.7755,11.4334
13.7755,5.9266
13.7447,5.7322
13.6839,5.5450
13.5945,5.3696
13.4788,5.2104
13.3396,5.0712
11.4368,3.1683
11.4033,3.1070
11.4005,3.0807
11.4005,2.6521
11.4005,2.6521
11.4005,2.6521
11.3941,2.5925
11.3438,2.4577
11.3438,2.4577
11.3438,2.4577
11.2575,2.3425
11.2575,2.3425
11.1423,2.2562
11.1423,2.2562
11.0075,2.2059
11.0075,2.2059
10.9479,2.1995
10.9479,2.1995
10.9479,2.1995
10.9479,2.1995
9.1521,2.1995
9.1521,2.1995
9.0925,2.2059
8.9577,2.2562
8.9577,2.2562
8.8425,2.3425
8.8425,2.3425
8.7562,2.4577
8.7562,2.4577
8.7059,2.5925
8.6995,2.6521
8.6995,2.6521
8.6995,2.6521
8.6995,4.4479
8.6995,4.4479
8.7059,4.5075
8.7562,4.6423
8.7562,4.6423
8.8425,4.7575
8.8425,4.7575
8.9577,4.8438
8.9577,4.8438
8.9651,4.8466
9.0925,4.8941
9.1521,4.9005
9.5807,4.9005
9.6477,4.9202
9.6683,4.9368
11.2382,6.5067
11.2717,6.5680
11.2745,6.5943
11.2745,10.7657
11.2548,10.8327
11.2382,10.8533
10.8283,11.2632
10.7670,11.2967
10.7407,11.2995
8.6016,11.2995
8.4072,11.3303
8.2200,11.3911
8.0446,11.4805
7.8854,11.5962
7.7462,11.7354
7.7462,11.7354
7.7462,11.7354
7.7028,11.7950
7.6305,11.8946
7.5411,12.0700
7.4803,12.2572
7.4495,12.4516
7.4495,12.5590
7.4298,12.6260
7.3770,12.6718
7.3255,12.6830
6.7628,12.6830
6.6958,12.6633
6.6752,12.6467
4.8618,10.8333
4.8283,10.7720
4.8255,10.7457
4.8255,5.5143
4.8452,5.4473
4.8618,5.4267
5.4715,4.8170
5.5029,4.7942
5.6778,4.7051
5.7293,4.6677
5.8498,4.5801
5.8498,4.5801
5.8498,4.5801
6.0001,4.4298
6.0001,4.4298
6.0001,4.4298
6.1250,4.2578
6.1250,4.2578
6.1251,4.2578
6.2216,4.0684
6.2872,3.8662
6.3205,3.6563
6.3205,3.4437
6.2872,3.2338
6.2216,3.0316
6.1251,2.8422
6.1250,2.8422
6.1250,2.8422
6.0001,2.6702
5.8498,2.5199
5.6778,2.3950
5.4884,2.2984
5.4884,2.2984
5.4884,2.2984
5.2862,2.2328
5.2862,2.2328
5.2862,2.2328
5.1250,2.2072
5.0763,2.1995
4.8637,2.1995
4.8150,2.2072
4.6538,2.2328
4.4516,2.2984
4.2622,2.3950
4.0902,2.5199
3.9399,2.6702
3.8150,2.8422
3.7258,3.0171
3.7030,3.0485
2.6212,4.1304
2.6212,4.1304
2.5715,4.1987
2.5055,4.2896
2.4157,4.4659
2.4146,4.4696
2.3553,4.6522
2.3553,4.6522
2.3245,4.8466
0.5505,4.8466
0.5505,0.6745
0.5702,0.6075
0.6230,0.5617
0.6745,0.5505
16.4255,0.5505
Z" /> 
<path style="fill:#D864FF; fill-opacity:0.4000; stroke:none;fill-rule:evenodd;"
d="M 3.0000,6.4000
3.0190,6.3043
3.0732,6.2232
3.1543,6.1690
3.2500,6.1500
3.9000,6.1500
3.9957,6.1690
4.0768,6.2232
4.1310,6.3043
4.1500,6.4000
4.1500,7.7000
4.1310,7.7957
4.0768,7.8768
3.9957,7.9310
3.9000,7.9500
3.2500,7.9500
3.1543,7.9310
3.0732,7.8768
3.0190,7.7957
3.0000,7.7000
Z" /> 
<path style="fill:#D864FF; fill-opacity:0.4000; stroke:none;fill-rule:evenodd;"
d="M 5.9500,6.4000
5.9690,6.3043
6.0232,6.2232
6.1043,6.1690
6.2000,6.1500
6.8500,6.1500
6.9457,6.1690
7.0268,6.2232
7.0810,6.3043
7.1000,6.4000
7.1000,7.7000
7.0810,7.7957
7.0268,7.8768
6.9457,7.9310
6.8500,7.9500
6.2000,7.9500
6.1043,7.9310
6.0232,7.8768
5.9690,7.7957
5.9500,7.7000
Z" /> 
<path style="fill:#D864FF; fill-opacity:0.4000; stroke:none;fill-rule:evenodd;"
d="M 13.1000,7.7000
13.0810,7.7957
13.0268,7.8768
12.9457,7.9310
12.8500,7.9500
12.2000,7.9500
12.1043,7.9310
12.0232,7.8768
11.9690,7.7957
11.9500,7.7000
11.9500,6.4000
11.9690,6.3043
12.0232,6.2232
12.1043,6.1690
12.2000,6.1500
12.8500,6.1500
12.9457,6.1690
13.0268,6.2232
13.0810,6.3043
13.1000,6.4000
Z" /> 
<path style="fill:#D864FF; fill-opacity:0.4000; stroke:none;fill-rule:evenodd;"
d="M 10.1500,7.7000
10.1310,7.7957
10.0768,7.8768
9.9957,7.9310
9.9000,7.9500
9.2500,7.9500
9.1543,7.9310
9.0732,7.8768
9.0190,7.7957
9.0000,7.7000
9.0000,6.4000
9.0190,6.3043
9.0732,6.2232
9.1543,6.1690
9.2500,6.1500
9.9000,6.1500
9.9957,6.1690
10.0768,6.2232
10.1310,6.3043
10.1500,6.4000
Z" /> 
<path style="fill:#D864FF; fill-opacity:0.4000; stroke:none;fill-rule:evenodd;"
d="M 9.3500,15.7750
9.3329,15.8611
9.2841,15.9341
9.2111,15.9829
9.1250,16.0000
8.2750,16.0000
8.1889,15.9829
8.1159,15.9341
8.0671,15.8611
8.0500,15.7750
8.0500,15.3250
8.0671,15.2389
8.1159,15.1659
8.1889,15.1171
8.2750,15.1000
9.1250,15.1000
9.2111,15.1171
9.2841,15.1659
9.3329,15.2389
9.3500,15.3250
Z" /> 
<path style="fill:#D864FF; fill-opacity:0.4000; stroke:none;fill-rule:evenodd;"
d="M 9.3500,14.2750
9.3329,14.3611
9.2841,14.4341
9.2111,14.4829
9.1250,14.5000
7.8750,14.5000
7.7889,14.4829
7.7159,14.4341
7.6671,14.3611
7.6500,14.2750
7.6500,13.8250
7.6671,13.7389
7.7159,13.6659
7.7889,13.6171
7.8750,13.6000
9.1250,13.6000
9.2111,13.6171
9.2841,13.6659
9.3329,13.7389
9.3500,13.8250
Z" /> 
<path style="fill:#D864FF; fill-opacity:0.4000; stroke:none;fill-rule:evenodd;"
d="M 7.6225,13.1835
7.7182,13.2025
7.7993,13.2567
7.8535,13.3378
7.8725,13.4335
7.8725,14.6665
7.8535,14.7622
7.7993,14.8433
7.7182,14.8975
7.6225,14.9165
4.9975,14.9165
4.9018,14.8975
4.8207,14.8433
4.7665,14.7622
4.7475,14.6665
4.7475,13.4335
4.7665,13.3378
4.8207,13.2567
4.9018,13.2025
4.9975,13.1835
Z" /> 
<path style="fill:#D864FF; fill-opacity:0.4000; stroke:none;fill-rule:evenodd;"
d="M 9.3500,12.7750
9.3329,12.8611
9.2841,12.9341
9.2111,12.9829
9.1250,13.0000
8.2750,13.0000
8.1889,12.9829
8.1159,12.9341
8.0671,12.8611
8.0500,12.7750
8.0500,12.3250
8.0671,12.2389
8.1159,12.1659
8.1889,12.1171
8.2750,12.1000
9.1250,12.1000
9.2111,12.1171
9.2841,12.1659
9.3329,12.2389
9.3500,12.3250
Z" /> 
<path style="fill:#D864FF; fill-opacity:0.4000; stroke:none;fill-rule:evenodd;"
d="M 3.0000,9.4000
3.0190,9.3043
3.0732,9.2232
3.1543,9.1690
3.2500,9.1500
3.9000,9.1500
3.9957,9.1690
4.0768,9.2232
4.1310,9.3043
4.1500,9.4000
4.1500,10.7000
4.1310,10.7957
4.0768,10.8768
3.9957,10.9310
3.9000,10.9500
3.2500,10.9500
3.1543,10.9310
3.0732,10.8768
3.0190,10.7957
3.0000,10.7000
Z" /> 
<path style="fill:#D864FF; fill-opacity:0.4000; stroke:none;fill-rule:evenodd;"
d="M 5.9500,9.4000
5.9690,9.3043
6.0232,9.2232
6.1043,9.1690
6.2000,9.1500
6.8500,9.1500
6.9457,9.1690
7.0268,9.2232
7.0810,9.3043
7.1000,9.4000
7.1000,10.7000
7.0810,10.7957
7.0268,10.8768
6.9457,10.9310
6.8500,10.9500
6.2000,10.9500
6.1043,10.9310
6.0232,10.8768
5.9690,10.7957
5.9500,10.7000
Z" /> 
<path style="fill:#D864FF; fill-opacity:0.4000; stroke:none;fill-rule:evenodd;"
d="M 13.1000,10.7000
13.0810,10.7957
13.0268,10.8768
12.9457,10.9310
12.8500,10.9500
12.2000,10.9500
12.1043,10.9310
12.0232,10.8768
11.9690,10.7957
11.9500,10.7000
11.9500,9.4000
11.9690,9.3043
12.0232,9.2232
12.1043,9.1690
12.2000,9.1500
12.8500,9.1500
12.9457,9.1690
13.0268,9.2232
13.0810,9.3043
13.1000,9.4000
Z" /> 
<path style="fill:#D864FF; fill-opacity:0.4000; stroke:none;fill-rule:evenodd;"
d="M 10.1500,10.7000
10.1310,10.7957
10.0768,10.8768
9.9957,10.9310
9.9000,10.9500
9.2500,10.9500
9.1543,10.9310
9.0732,10.8768
9.0190,10.7957
9.0000,10.7000
9.0000,9.4000
9.0190,9.3043
9.0732,9.2232
9.1543,9.1690
9.2500,9.1500
9.9000,9.1500
9.9957,9.1690
10.0768,9.2232
10.1310,9.3043
10.1500,9.4000
Z" /> 
<path style="fill:#D864FF; fill-opacity:0.4000; stroke:none;fill-rule:evenodd;"
d="M 9.2000,2.7000
10.9000,2.7000
10.9000,4.4000
9.2000,4.4000
Z" /> 
</g>
<g style="fill:#D864FF; fill-opacity:0.4000; stroke:none;">
<circle cx="7.5100" cy="3.5500" r="0.8500" /> 
<circle cx="4.9700" cy="3.5500" r="0.8500" /> 
<path style="fill:#B4A09A; fill-opacity:0.9000; stroke:none;fill-rule:evenodd;"
d="M 3.0000,6.4000
3.0190,6.3043
3.0732,6.2232
3.1543,6.1690
3.2500,6.1500
3.9000,6.1500
3.9957,6.1690
4.0768,6.2232
4.1310,6.3043
4.1500,6.4000
4.1500,7.7000
4.1310,7.7957
4.0768,7.8768
3.9957,7.9310
3.9000,7.9500
3.2500,7.9500
3.1543,7.9310
3.0732,7.8768
3.0190,7.7957
3.0000,7.7000
Z" /> 
<path style="fill:#B4A09A; fill-opacity:0.9000; stroke:none;fill-rule:evenodd;"
d="M 5.9500,6.4000
5.9690,6.3043
6.0232,6.2232
6.1043,6.1690
6.2000,6.1500
6.8500,6.1500
6.9457,6.1690
7.0268,6.2232
7.0810,6.3043
7.1000,6.4000
7.1000,7.7000
7.0810,7.7957
7.0268,7.8768
6.9457,7.9310
6.8500,7.9500
6.2000,7.9500
6.1043,7.9310
6.0232,7.8768
5.9690,7.7957
5.9500,7.7000
Z" /> 
<path style="fill:#B4A09A; fill-opacity:0.9000; stroke:none;fill-rule:evenodd;"
d="M 13.1000,7.7000
13.0810,7.7957
13.0268,7.8768
12.9457,7.9310
12.8500,7.9500
12.2000,7.9500
12.1043,7.9310
12.0232,7.8768
11.9690,7.7957
11.9500,7.7000
11.9500,6.4000
11.9690,6.3043
12.0232,6.2232
12.1043,6.1690
12.2000,6.1500
12.8500,6.1500
12.9457,6.1690
13.0268,6.2232
13.0810,6.3043
13.1000,6.4000
Z" /> 
<path style="fill:#B4A09A; fill-opacity:0.9000; stroke:none;fill-rule:evenodd;"
d="M 10.1500,7.7000
10.1310,7.7957
10.0768,7.8768
9.9957,7.9310
9.9000,7.9500
9.2500,7.9500
9.1543,7.9310
9.0732,7.8768
9.0190,7.7957
9.0000,7.7000
9.0000,6.4000
9.0190,6.3043
9.0732,6.2232
9.1543,6.1690
9.2500,6.1500
9.9000,6.1500
9.9957,6.1690
10.0768,6.2232
10.1310,6.3043
10.1500,6.4000
Z" /> 
<path style="fill:#B4A09A; fill-opacity:0.9000; stroke:none;fill-rule:evenodd;"
d="M 9.3500,15.7750
9.3329,15.8611
9.2841,15.9341
9.2111,15.9829
9.1250,16.0000
8.2750,16.0000
8.1889,15.9829
8.1159,15.9341
8.0671,15.8611
8.0500,15.7750
8.0500,15.3250
8.0671,15.2389
8.1159,15.1659
8.1889,15.1171
8.2750,15.1000
9.1250,15.1000
9.2111,15.1171
9.2841,15.1659
9.3329,15.2389
9.3500,15.3250
Z" /> 
<path style="fill:#B4A09A; fill-opacity:0.9000; stroke:none;fill-rule:evenodd;"
d="M 9.3500,14.2750
9.3329,14.3611
9.2841,14.4341
9.2111,14.4829
9.1250,14.5000
7.8750,14.5000
7.7889,14.4829
7.7159,14.4341
7.6671,14.3611
7.6500,14.2750
7.6500,13.8250
7.6671,13.7389
7.7159,13.6659
7.7889,13.6171
7.8750,13.6000
9.1250,13.6000
9.2111,13.6171
9.2841,13.6659
9.3329,13.7389
9.3500,13.8250
Z" /> 
<path style="fill:#B4A09A; fill-opacity:0.9000; stroke:none;fill-rule:evenodd;"
d="M 7.6225,13.1835
7.7182,13.2025
7.7993,13.2567
7.8535,13.3378
7.8725,13.4335
7.8725,14.6665
7.8535,14.7622
7.7993,14.8433
7.7182,14.8975
7.6225,14.9165
4.9975,14.9165
4.9018,14.8975
4.8207,14.8433
4.7665,14.7622
4.7475,14.6665
4.7475,13.4335
4.7665,13.3378
4.8207,13.2567
4.9018,13.2025
4.9975,13.1835
Z" /> 
<path style="fill:#B4A09A; fill-opacity:0.9000; stroke:none;fill-rule:evenodd;"
d="M 9.3500,12.7750
9.3329,12.8611
9.2841,12.9341
9.2111,12.9829
9.1250,13.0000
8.2750,13.0000
8.1889,12.9829
8.1159,12.9341
8.0671,12.8611
8.0500,12.7750
8.0500,12.3250
8.0671,12.2389
8.1159,12.1659
8.1889,12.1171
8.2750,12.1000
9.1250,12.1000
9.2111,12.1171
9.2841,12.1659
9.3329,12.2389
9.3500,12.3250
Z" /> 
<path style="fill:#B4A09A; fill-opacity:0.9000; stroke:none;fill-rule:evenodd;"
d="M 3.0000,9.4000
3.0190,9.3043
3.0732,9.2232
3.1543,9.1690
3.2500,9.1500
3.9000,9.1500
3.9957,9.1690
4.0768,9.2232
4.1310,9.3043
4.1500,9.4000
4.1500,10.7000
4.1310,10.7957
4.0768,10.8768
3.9957,10.9310
3.9000,10.9500
3.2500,10.9500
3.1543,10.9310
3.0732,10.8768
3.0190,10.7957
3.0000,10.7000
Z" /> 
<path style="fill:#B4A09A; fill-opacity:0.9000; stroke:none;fill-rule:evenodd;"
d="M 5.9500,9.4000
5.9690,9.3043
6.0232,9.2232
6.1043,9.1690
6.2000,9.1500
6.8500,9.1500
6.9457,9.1690
7.0268,9.2232
7.0810,9.3043
7.1000,9.4000
7.1000,10.7000
7.0810,10.7957
7.0268,10.8768
6.9457,10.9310
6.8500,10.9500
6.2000,10.9500
6.1043,10.9310
6.0232,10.8768
5.9690,10.7957
5.9500,10.7000
Z" /> 
<path style="fill:#B4A09A; fill-opacity:0.9000; stroke:none;fill-rule:evenodd;"
d="M 13.1000,10.7000
13.0810,10.7957
13.0268,10.8768
12.9457,10.9310
12.8500,10.9500
12.2000,10.9500
12.1043,10.9310
12.0232,10.8768
11.9690,10.7957
11.9500,10.7000
11.9500,9.4000
11.9690,9.3043
12.0232,9.2232
12.1043,9.1690
12.2000,9.1500
12.8500,9.1500
12.9457,9.1690
13.0268,9.2232
13.0810,9.3043
13.1000,9.4000
Z" /> 
<path style="fill:#B4A09A; fill-opacity:0.9000; stroke:none;fill-rule:evenodd;"
d="M 10.1500,10.7000
10.1310,10.7957
10.0768,10.8768
9.9957,10.9310
9.9000,10.9500
9.2500,10.9500
9.1543,10.9310
9.0732,10.8768
9.0190,10.7957
9.0000,10.7000
9.0000,9.4000
9.0190,9.3043
9.0732,9.2232
9.1543,9.1690
9.2500,9.1500
9.9000,9.1500
9.9957,9.1690
10.0768,9.2232
10.1310,9.3043
10.1500,9.4000
Z" /> 
</g>
<g style="fill:none; 
stroke:#F2EDA1; stroke-width:0.1200; stroke-opacity:1; 
stroke-linecap:round; stroke-linejoin:round;">
<text x="6.5900" y="2.0500"
textLength="2.3533" font-size="0.9333" lengthAdjust="spacingAndGlyphs"
text-anchor="start" opacity="0" stroke-opacity="0">GND</text>
<g class="stroked-text"><desc>GND</desc>
<path d="M7.2023 1.2914
L7.1356 1.2581
" />
<path d="M7.1356 1.2581
L7.0356 1.2581
" />
<path d="M7.0356 1.2581
L6.9356 1.2914
" />
<path d="M6.9356 1.2914
L6.8689 1.3581
" />
<path d="M6.8689 1.3581
L6.8356 1.4248
" />
<path d="M6.8356 1.4248
L6.8023 1.5581
" />
<path d="M6.8023 1.5581
L6.8023 1.6581
" />
<path d="M6.8023 1.6581
L6.8356 1.7914
" />
<path d="M6.8356 1.7914
L6.8689 1.8581
" />
<path d="M6.8689 1.8581
L6.9356 1.9248
" />
<path d="M6.9356 1.9248
L7.0356 1.9581
" />
<path d="M7.0356 1.9581
L7.1023 1.9581
" />
<path d="M7.1023 1.9581
L7.2023 1.9248
" />
<path d="M7.2023 1.9248
L7.2356 1.8914
" />
<path d="M7.2356 1.8914
L7.2356 1.6581
" />
<path d="M7.2356 1.6581
L7.1023 1.6581
" />
<path d="M7.5356 1.9581
L7.5356 1.2581
" />
<path d="M7.5356 1.2581
L7.9356 1.9581
" />
<path d="M7.9356 1.9581
L7.9356 1.2581
" />
<path d="M8.2689 1.9581
L8.2689 1.2581
" />
<path d="M8.2689 1.2581
L8.4356 1.2581
" />
<path d="M8.4356 1.2581
L8.5356 1.2914
" />
<path d="M8.5356 1.2914
L8.6023 1.3581
" />
<path d="M8.6023 1.3581
L8.6356 1.4248
" />
<path d="M8.6356 1.4248
L8.6689 1.5581
" />
<path d="M8.6689 1.5581
L8.6689 1.6581
" />
<path d="M8.6689 1.6581
L8.6356 1.7914
" />
<path d="M8.6356 1.7914
L8.6023 1.8581
" />
<path d="M8.6023 1.8581
L8.5356 1.9248
" />
<path d="M8.5356 1.9248
L8.4356 1.9581
" />
<path d="M8.4356 1.9581
L8.2689 1.9581
" />
</g><text x="4.0500" y="2.0500"
textLength="2.1533" font-size="0.9333" lengthAdjust="spacingAndGlyphs"
text-anchor="start" opacity="0" stroke-opacity="0">12V</text>
<g class="stroked-text"><desc>12V</desc>
<path d="M4.6623 1.9581
L4.2623 1.9581
" />
<path d="M4.4623 1.9581
L4.4623 1.2581
" />
<path d="M4.4623 1.2581
L4.3956 1.3581
" />
<path d="M4.3956 1.3581
L4.3289 1.4248
" />
<path d="M4.3289 1.4248
L4.2623 1.4581
" />
<path d="M4.9289 1.3248
L4.9623 1.2914
" />
<path d="M4.9623 1.2914
L5.0289 1.2581
" />
<path d="M5.0289 1.2581
L5.1956 1.2581
" />
<path d="M5.1956 1.2581
L5.2623 1.2914
" />
<path d="M5.2623 1.2914
L5.2956 1.3248
" />
<path d="M5.2956 1.3248
L5.3289 1.3914
" />
<path d="M5.3289 1.3914
L5.3289 1.4581
" />
<path d="M5.3289 1.4581
L5.2956 1.5581
" />
<path d="M5.2956 1.5581
L4.8956 1.9581
" />
<path d="M4.8956 1.9581
L5.3289 1.9581
" />
<path d="M5.5289 1.2581
L5.7623 1.9581
" />
<path d="M5.7623 1.9581
L5.9956 1.2581
" />
</g><text x="9.1300" y="2.0500"
textLength="2.1533" font-size="0.9333" lengthAdjust="spacingAndGlyphs"
text-anchor="start" opacity="0" stroke-opacity="0">3V3</text>
<g class="stroked-text"><desc>3V3</desc>
<path d="M9.3089 1.2581
L9.7423 1.2581
" />
<path d="M9.7423 1.2581
L9.5089 1.5248
" />
<path d="M9.5089 1.5248
L9.6089 1.5248
" />
<path d="M9.6089 1.5248
L9.6756 1.5581
" />
<path d="M9.6756 1.5581
L9.7089 1.5914
" />
<path d="M9.7089 1.5914
L9.7423 1.6581
" />
<path d="M9.7423 1.6581
L9.7423 1.8248
" />
<path d="M9.7423 1.8248
L9.7089 1.8914
" />
<path d="M9.7089 1.8914
L9.6756 1.9248
" />
<path d="M9.6756 1.9248
L9.6089 1.9581
" />
<path d="M9.6089 1.9581
L9.4089 1.9581
" />
<path d="M9.4089 1.9581
L9.3423 1.9248
" />
<path d="M9.3423 1.9248
L9.3089 1.8914
" />
<path d="M9.9423 1.2581
L10.1756 1.9581
" />
<path d="M10.1756 1.9581
L10.4089 1.2581
" />
<path d="M10.5756 1.2581
L11.0089 1.2581
" />
<path d="M11.0089 1.2581
L10.7756 1.5248
" />
<path d="M10.7756 1.5248
L10.8756 1.5248
" />
<path d="M10.8756 1.5248
L10.9423 1.5581
" />
<path d="M10.9423 1.5581
L10.9756 1.5914
" />
<path d="M10.9756 1.5914
L11.0089 1.6581
" />
<path d="M11.0089 1.6581
L11.0089 1.8248
" />
<path d="M11.0089 1.8248
L10.9756 1.8914
" />
<path d="M10.9756 1.8914
L10.9423 1.9248
" />
<path d="M10.9423 1.9248
L10.8756 1.9581
" />
<path d="M10.8756 1.9581
L10.6756 1.9581
" />
<path d="M10.6756 1.9581
L10.6089 1.9248
" />
<path d="M10.6089 1.9248
L10.5756 1.8914
" />
</g><text x="5.0577" y="7.4000"
textLength="1.5867" font-size="0.9333" lengthAdjust="spacingAndGlyphs"
text-anchor="middle" opacity="0" stroke-opacity="0">C1</text>
<g class="stroked-text"><desc>C1</desc>
<path d="M4.9410 7.3009
L4.9077 7.3343
" />
<path d="M4.9077 7.3343
L4.8077 7.3676
" />
<path d="M4.8077 7.3676
L4.7410 7.3676
" />
<path d="M4.7410 7.3676
L4.6410 7.3343
" />
<path d="M4.6410 7.3343
L4.5743 7.2676
" />
<path d="M4.5743 7.2676
L4.5410 7.2009
" />
<path d="M4.5410 7.2009
L4.5077 7.0676
" />
<path d="M4.5077 7.0676
L4.5077 6.9676
" />
<path d="M4.5077 6.9676
L4.5410 6.8343
" />
<path d="M4.5410 6.8343
L4.5743 6.7676
" />
<path d="M4.5743 6.7676
L4.6410 6.7009
" />
<path d="M4.6410 6.7009
L4.7410 6.6676
" />
<path d="M4.7410 6.6676
L4.8077 6.6676
" />
<path d="M4.8077 6.6676
L4.9077 6.7009
" />
<path d="M4.9077 6.7009
L4.9410 6.7343
" />
<path d="M5.6077 7.3676
L5.2077 7.3676
" />
<path d="M5.4077 7.3676
L5.4077 6.6676
" />
<path d="M5.4077 6.6676
L5.3410 6.7676
" />
<path d="M5.3410 6.7676
L5.2743 6.8343
" />
<path d="M5.2743 6.8343
L5.2077 6.8676
" />
</g><text x="5.0500" y="6.2000"
textLength="2.7867" font-size="0.9333" lengthAdjust="spacingAndGlyphs"
text-anchor="middle" opacity="0" stroke-opacity="0">10uF</text>
<g class="stroked-text"><desc>10uF</desc>
<path d="M4.3000 6.1676
L3.9000 6.1676
" />
<path d="M4.1000 6.1676
L4.1000 5.4676
" />
<path d="M4.1000 5.4676
L4.0333 5.5676
" />
<path d="M4.0333 5.5676
L3.9667 5.6343
" />
<path d="M3.9667 5.6343
L3.9000 5.6676
" />
<path d="M4.7333 5.4676
L4.8000 5.4676
" />
<path d="M4.8000 5.4676
L4.8667 5.5009
" />
<path d="M4.8667 5.5009
L4.9000 5.5343
" />
<path d="M4.9000 5.5343
L4.9333 5.6009
" />
<path d="M4.9333 5.6009
L4.9667 5.7343
" />
<path d="M4.9667 5.7343
L4.9667 5.9009
" />
<path d="M4.9667 5.9009
L4.9333 6.0343
" />
<path d="M4.9333 6.0343
L4.9000 6.1009
" />
<path d="M4.9000 6.1009
L4.8667 6.1343
" />
<path d="M4.8667 6.1343
L4.8000 6.1676
" />
<path d="M4.8000 6.1676
L4.7333 6.1676
" />
<path d="M4.7333 6.1676
L4.6667 6.1343
" />
<path d="M4.6667 6.1343
L4.6333 6.1009
" />
<path d="M4.6333 6.1009
L4.6000 6.0343
" />
<path d="M4.6000 6.0343
L4.5667 5.9009
" />
<path d="M4.5667 5.9009
L4.5667 5.7343
" />
<path d="M4.5667 5.7343
L4.6000 5.6009
" />
<path d="M4.6000 5.6009
L4.6333 5.5343
" />
<path d="M4.6333 5.5343
L4.6667 5.5009
" />
<path d="M4.6667 5.5009
L4.7333 5.4676
" />
<path d="M5.5667 5.7009
L5.5667 6.1676
" />
<path d="M5.2667 5.7009
L5.2667 6.0676
" />
<path d="M5.2667 6.0676
L5.3000 6.1343
" />
<path d="M5.3000 6.1343
L5.3667 6.1676
" />
<path d="M5.3667 6.1676
L5.4667 6.1676
" />
<path d="M5.4667 6.1676
L5.5333 6.1343
" />
<path d="M5.5333 6.1343
L5.5667 6.1009
" />
<path d="M6.1333 5.8009
L5.9000 5.8009
" />
<path d="M5.9000 6.1676
L5.9000 5.4676
" />
<path d="M5.9000 5.4676
L6.2333 5.4676
" />
</g><text x="11.0423" y="7.4000"
textLength="1.5867" font-size="0.9333" lengthAdjust="spacingAndGlyphs"
text-anchor="middle" opacity="0" stroke-opacity="0">C4</text>
<g class="stroked-text"><desc>C4</desc>
<path d="M10.9257 7.3009
L10.8923 7.3343
" />
<path d="M10.8923 7.3343
L10.7923 7.3676
" />
<path d="M10.7923 7.3676
L10.7257 7.3676
" />
<path d="M10.7257 7.3676
L10.6257 7.3343
" />
<path d="M10.6257 7.3343
L10.5590 7.2676
" />
<path d="M10.5590 7.2676
L10.5257 7.2009
" />
<path d="M10.5257 7.2009
L10.4923 7.0676
" />
<path d="M10.4923 7.0676
L10.4923 6.9676
" />
<path d="M10.4923 6.9676
L10.5257 6.8343
" />
<path d="M10.5257 6.8343
L10.5590 6.7676
" />
<path d="M10.5590 6.7676
L10.6257 6.7009
" />
<path d="M10.6257 6.7009
L10.7257 6.6676
" />
<path d="M10.7257 6.6676
L10.7923 6.6676
" />
<path d="M10.7923 6.6676
L10.8923 6.7009
" />
<path d="M10.8923 6.7009
L10.9257 6.7343
" />
<path d="M11.5257 6.9009
L11.5257 7.3676
" />
<path d="M11.3590 6.6343
L11.1923 7.1343
" />
<path d="M11.1923 7.1343
L11.6257 7.1343
" />
</g><g transform="rotate(-90.000000 14.0500 7.0500)">
<text x="14.0500" y="7.4000"
textLength="3.4533" font-size="0.9333" lengthAdjust="spacingAndGlyphs"
text-anchor="middle" opacity="0" stroke-opacity="0">100nF</text>
</g>
<g class="stroked-text"><desc>100nF</desc>
<path d="M14.3676 8.1333
L14.3676 8.5333
" />
<path d="M14.3676 8.3333
L13.6676 8.3333
" />
<path d="M13.6676 8.3333
L13.7676 8.4000
" />
<path d="M13.7676 8.4000
L13.8343 8.4667
" />
<path d="M13.8343 8.4667
L13.8676 8.5333
" />
<path d="M13.6676 7.7000
L13.6676 7.6333
" />
<path d="M13.6676 7.6333
L13.7009 7.5667
" />
<path d="M13.7009 7.5667
L13.7343 7.5333
" />
<path d="M13.7343 7.5333
L13.8009 7.5000
" />
<path d="M13.8009 7.5000
L13.9343 7.4667
" />
<path d="M13.9343 7.4667
L14.1009 7.4667
" />
<path d="M14.1009 7.4667
L14.2343 7.5000
" />
<path d="M14.2343 7.5000
L14.3009 7.5333
" />
<path d="M14.3009 7.5333
L14.3343 7.5667
" />
<path d="M14.3343 7.5667
L14.3676 7.6333
" />
<path d="M14.3676 7.6333
L14.3676 7.7000
" />
<path d="M14.3676 7.7000
L14.3343 7.7667
" />
<path d="M14.3343 7.7667
L14.3009 7.8000
" />
<path d="M14.3009 7.8000
L14.2343 7.8333
" />
<path d="M14.2343 7.8333
L14.1009 7.8667
" />
<path d="M14.1009 7.8667
L13.9343 7.8667
" />
<path d="M13.9343 7.8667
L13.8009 7.8333
" />
<path d="M13.8009 7.8333
L13.7343 7.8000
" />
<path d="M13.7343 7.8000
L13.7009 7.7667
" />
<path d="M13.7009 7.7667
L13.6676 7.7000
" />
<path d="M13.6676 7.0333
L13.6676 6.9667
" />
<path d="M13.6676 6.9667
L13.7009 6.9000
" />
<path d="M13.7009 6.9000
L13.7343 6.8667
" />
<path d="M13.7343 6.8667
L13.8009 6.8333
" />
<path d="M13.8009 6.8333
L13.9343 6.8000
" />
<path d="M13.9343 6.8000
L14.1009 6.8000
" />
<path d="M14.1009 6.8000
L14.2343 6.8333
" />
<path d="M14.2343 6.8333
L14.3009 6.8667
" />
<path d="M14.3009 6.8667
L14.3343 6.9000
" />
<path d="M14.3343 6.9000
L14.3676 6.9667
" />
<path d="M14.3676 6.9667
L14.3676 7.0333
" />
<path d="M14.3676 7.0333
L14.3343 7.1000
" />
<path d="M14.3343 7.1000
L14.3009 7.1333
" />
<path d="M14.3009 7.1333
L14.2343 7.1667
" />
<path d="M14.2343 7.1667
L14.1009 7.2000
" />
<path d="M14.1009 7.2000
L13.9343 7.2000
" />
<path d="M13.9343 7.2000
L13.8009 7.1667
" />
<path d="M13.8009 7.1667
L13.7343 7.1333
" />
<path d="M13.7343 7.1333
L13.7009 7.1000
" />
<path d="M13.7009 7.1000
L13.6676 7.0333
" />
<path d="M13.9009 6.5000
L14.3676 6.5000
" />
<path d="M13.9676 6.5000
L13.9343 6.4667
" />
<path d="M13.9343 6.4667
L13.9009 6.4000
" />
<path d="M13.9009 6.4000
L13.9009 6.3000
" />
<path d="M13.9009 6.3000
L13.9343 6.2333
" />
<path d="M13.9343 6.2333
L14.0009 6.2000
" />
<path d="M14.0009 6.2000
L14.3676 6.2000
" />
<path d="M14.0009 5.6333
L14.0009 5.8667
" />
<path d="M14.3676 5.8667
L13.6676 5.8667
" />
<path d="M13.6676 5.8667
L13.6676 5.5333
" />
</g><text x="13.0500" y="15.4000"
textLength="1.6200" font-size="0.9333" lengthAdjust="spacingAndGlyphs"
text-anchor="middle" opacity="0" stroke-opacity="0">U1</text>
<g class="stroked-text"><desc>U1</desc>
<path d="M12.5167 14.6676
L12.5167 15.2343
" />
<path d="M12.5167 15.2343
L12.5500 15.3009
" />
<path d="M12.5500 15.3009
L12.5833 15.3343
" />
<path d="M12.5833 15.3343
L12.6500 15.3676
" />
<path d="M12.6500 15.3676
L12.7833 15.3676
" />
<path d="M12.7833 15.3676
L12.8500 15.3343
" />
<path d="M12.8500 15.3343
L12.8833 15.3009
" />
<path d="M12.8833 15.3009
L12.9167 15.2343
" />
<path d="M12.9167 15.2343
L12.9167 14.6676
" />
<path d="M13.6167 15.3676
L13.2167 15.3676
" />
<path d="M13.4167 15.3676
L13.4167 14.6676
" />
<path d="M13.4167 14.6676
L13.3500 14.7676
" />
<path d="M13.3500 14.7676
L13.2833 14.8343
" />
<path d="M13.2833 14.8343
L13.2167 14.8676
" />
</g><text x="13.0500" y="14.4000"
textLength="4.1533" font-size="0.9333" lengthAdjust="spacingAndGlyphs"
text-anchor="middle" opacity="0" stroke-opacity="0">HT7333</text>
<g class="stroked-text"><desc>HT7333</desc>
<path d="M11.2500 14.3676
L11.2500 13.6676
" />
<path d="M11.2500 14.0009
L11.6500 14.0009
" />
<path d="M11.6500 14.3676
L11.6500 13.6676
" />
<path d="M11.8833 13.6676
L12.2833 13.6676
" />
<path d="M12.0833 14.3676
L12.0833 13.6676
" />
<path d="M12.4500 13.6676
L12.9167 13.6676
" />
<path d="M12.9167 13.6676
L12.6167 14.3676
" />
<path d="M13.1167 13.6676
L13.5500 13.6676
" />
<path d="M13.5500 13.6676
L13.3167 13.9343
" />
<path d="M13.3167 13.9343
L13.4167 13.9343
" />
<path d="M13.4167 13.9343
L13.4833 13.9676
" />
<path d="M13.4833 13.9676
L13.5167 14.0009
" />
<path d="M13.5167 14.0009
L13.5500 14.0676
" />
<path d="M13.5500 14.0676
L13.5500 14.2343
" />
<path d="M13.5500 14.2343
L13.5167 14.3009
" />
<path d="M13.5167 14.3009
L13.4833 14.3343
" />
<path d="M13.4833 14.3343
L13.4167 14.3676
" />
<path d="M13.4167 14.3676
L13.2167 14.3676
" />
<path d="M13.2167 14.3676
L13.1500 14.3343
" />
<path d="M13.1500 14.3343
L13.1167 14.3009
" />
<path d="M13.7833 13.6676
L14.2167 13.6676
" />
<path d="M14.2167 13.6676
L13.9833 13.9343
" />
<path d="M13.9833 13.9343
L14.0833 13.9343
" />
<path d="M14.0833 13.9343
L14.1500 13.9676
" />
<path d="M14.1500 13.9676
L14.1833 14.0009
" />
<path d="M14.1833 14.0009
L14.2167 14.0676
" />
<path d="M14.2167 14.0676
L14.2167 14.2343
" />
<path d="M14.2167 14.2343
L14.1833 14.3009
" />
<path d="M14.1833 14.3009
L14.1500 14.3343
" />
<path d="M14.1500 14.3343
L14.0833 14.3676
" />
<path d="M14.0833 14.3676
L13.8833 14.3676
" />
<path d="M13.8833 14.3676
L13.8167 14.3343
" />
<path d="M13.8167 14.3343
L13.7833 14.3009
" />
<path d="M14.4500 13.6676
L14.8833 13.6676
" />
<path d="M14.8833 13.6676
L14.6500 13.9343
" />
<path d="M14.6500 13.9343
L14.7500 13.9343
" />
<path d="M14.7500 13.9343
L14.8167 13.9676
" />
<path d="M14.8167 13.9676
L14.8500 14.0009
" />
<path d="M14.8500 14.0009
L14.8833 14.0676
" />
<path d="M14.8833 14.0676
L14.8833 14.2343
" />
<path d="M14.8833 14.2343
L14.8500 14.3009
" />
<path d="M14.8500 14.3009
L14.8167 14.3343
" />
<path d="M14.8167 14.3343
L14.7500 14.3676
" />
<path d="M14.7500 14.3676
L14.5500 14.3676
" />
<path d="M14.5500 14.3676
L14.4833 14.3343
" />
<path d="M14.4833 14.3343
L14.4500 14.3009
" />
</g><text x="5.0577" y="10.4000"
textLength="1.5867" font-size="0.9333" lengthAdjust="spacingAndGlyphs"
text-anchor="middle" opacity="0" stroke-opacity="0">C2</text>
<g class="stroked-text"><desc>C2</desc>
<path d="M4.9410 10.3009
L4.9077 10.3343
" />
<path d="M4.9077 10.3343
L4.8077 10.3676
" />
<path d="M4.8077 10.3676
L4.7410 10.3676
" />
<path d="M4.7410 10.3676
L4.6410 10.3343
" />
<path d="M4.6410 10.3343
L4.5743 10.2676
" />
<path d="M4.5743 10.2676
L4.5410 10.2009
" />
<path d="M4.5410 10.2009
L4.5077 10.0676
" />
<path d="M4.5077 10.0676
L4.5077 9.9676
" />
<path d="M4.5077 9.9676
L4.5410 9.8343
" />
<path d="M4.5410 9.8343
L4.5743 9.7676
" />
<path d="M4.5743 9.7676
L4.6410 9.7009
" />
<path d="M4.6410 9.7009
L4.7410 9.6676
" />
<path d="M4.7410 9.6676
L4.8077 9.6676
" />
<path d="M4.8077 9.6676
L4.9077 9.7009
" />
<path d="M4.9077 9.7009
L4.9410 9.7343
" />
<path d="M5.2077 9.7343
L5.2410 9.7009
" />
<path d="M5.2410 9.7009
L5.3077 9.6676
" />
<path d="M5.3077 9.6676
L5.4743 9.6676
" />
<path d="M5.4743 9.6676
L5.5410 9.7009
" />
<path d="M5.5410 9.7009
L5.5743 9.7343
" />
<path d="M5.5743 9.7343
L5.6077 9.8009
" />
<path d="M5.6077 9.8009
L5.6077 9.8676
" />
<path d="M5.6077 9.8676
L5.5743 9.9676
" />
<path d="M5.5743 9.9676
L5.1743 10.3676
" />
<path d="M5.1743 10.3676
L5.6077 10.3676
" />
</g><text x="5.0500" y="9.2000"
textLength="3.4533" font-size="0.9333" lengthAdjust="spacingAndGlyphs"
text-anchor="middle" opacity="0" stroke-opacity="0">100nF</text>
<g class="stroked-text"><desc>100nF</desc>
<path d="M3.9667 9.1676
L3.5667 9.1676
" />
<path d="M3.7667 9.1676
L3.7667 8.4676
" />
<path d="M3.7667 8.4676
L3.7000 8.5676
" />
<path d="M3.7000 8.5676
L3.6333 8.6343
" />
<path d="M3.6333 8.6343
L3.5667 8.6676
" />
<path d="M4.4000 8.4676
L4.4667 8.4676
" />
<path d="M4.4667 8.4676
L4.5333 8.5009
" />
<path d="M4.5333 8.5009
L4.5667 8.5343
" />
<path d="M4.5667 8.5343
L4.6000 8.6009
" />
<path d="M4.6000 8.6009
L4.6333 8.7343
" />
<path d="M4.6333 8.7343
L4.6333 8.9009
" />
<path d="M4.6333 8.9009
L4.6000 9.0343
" />
<path d="M4.6000 9.0343
L4.5667 9.1009
" />
<path d="M4.5667 9.1009
L4.5333 9.1343
" />
<path d="M4.5333 9.1343
L4.4667 9.1676
" />
<path d="M4.4667 9.1676
L4.4000 9.1676
" />
<path d="M4.4000 9.1676
L4.3333 9.1343
" />
<path d="M4.3333 9.1343
L4.3000 9.1009
" />
<path d="M4.3000 9.1009
L4.2667 9.0343
" />
<path d="M4.2667 9.0343
L4.2333 8.9009
" />
<path d="M4.2333 8.9009
L4.2333 8.7343
" />
<path d="M4.2333 8.7343
L4.2667 8.6009
" />
<path d="M4.2667 8.6009
L4.3000 8.5343
" />
<path d="M4.3000 8.5343
L4.3333 8.5009
" />
<path d="M4.3333 8.5009
L4.4000 8.4676
" />
<path d="M5.0667 8.4676
L5.1333 8.4676
" />
<path d="M5.1333 8.4676
L5.2000 8.5009
" />
<path d="M5.2000 8.5009
L5.2333 8.5343
" />
<path d="M5.2333 8.5343
L5.2667 8.6009
" />
<path d="M5.2667 8.6009
L5.3000 8.7343
" />
<path d="M5.3000 8.7343
L5.3000 8.9009
" />
<path d="M5.3000 8.9009
L5.2667 9.0343
" />
<path d="M5.2667 9.0343
L5.2333 9.1009
" />
<path d="M5.2333 9.1009
L5.2000 9.1343
" />
<path d="M5.2000 9.1343
L5.1333 9.1676
" />
<path d="M5.1333 9.1676
L5.0667 9.1676
" />
<path d="M5.0667 9.1676
L5.0000 9.1343
" />
<path d="M5.0000 9.1343
L4.9667 9.1009
" />
<path d="M4.9667 9.1009
L4.9333 9.0343
" />
<path d="M4.9333 9.0343
L4.9000 8.9009
" />
<path d="M4.9000 8.9009
L4.9000 8.7343
" />
<path d="M4.9000 8.7343
L4.9333 8.6009
" />
<path d="M4.9333 8.6009
L4.9667 8.5343
" />
<path d="M4.9667 8.5343
L5.0000 8.5009
" />
<path d="M5.0000 8.5009
L5.0667 8.4676
" />
<path d="M5.6000 8.7009
L5.6000 9.1676
" />
<path d="M5.6000 8.7676
L5.6333 8.7343
" />
<path d="M5.6333 8.7343
L5.7000 8.7009
" />
<path d="M5.7000 8.7009
L5.8000 8.7009
" />
<path d="M5.8000 8.7009
L5.8667 8.7343
" />
<path d="M5.8667 8.7343
L5.9000 8.8009
" />
<path d="M5.9000 8.8009
L5.9000 9.1676
" />
<path d="M6.4667 8.8009
L6.2333 8.8009
" />
<path d="M6.2333 9.1676
L6.2333 8.4676
" />
<path d="M6.2333 8.4676
L6.5667 8.4676
" />
</g><text x="11.0500" y="10.4000"
textLength="1.5867" font-size="0.9333" lengthAdjust="spacingAndGlyphs"
text-anchor="middle" opacity="0" stroke-opacity="0">C3</text>
<g class="stroked-text"><desc>C3</desc>
<path d="M10.9333 10.3009
L10.9000 10.3343
" />
<path d="M10.9000 10.3343
L10.8000 10.3676
" />
<path d="M10.8000 10.3676
L10.7333 10.3676
" />
<path d="M10.7333 10.3676
L10.6333 10.3343
" />
<path d="M10.6333 10.3343
L10.5667 10.2676
" />
<path d="M10.5667 10.2676
L10.5333 10.2009
" />
<path d="M10.5333 10.2009
L10.5000 10.0676
" />
<path d="M10.5000 10.0676
L10.5000 9.9676
" />
<path d="M10.5000 9.9676
L10.5333 9.8343
" />
<path d="M10.5333 9.8343
L10.5667 9.7676
" />
<path d="M10.5667 9.7676
L10.6333 9.7009
" />
<path d="M10.6333 9.7009
L10.7333 9.6676
" />
<path d="M10.7333 9.6676
L10.8000 9.6676
" />
<path d="M10.8000 9.6676
L10.9000 9.7009
" />
<path d="M10.9000 9.7009
L10.9333 9.7343
" />
<path d="M11.1667 9.6676
L11.6000 9.6676
" />
<path d="M11.6000 9.6676
L11.3667 9.9343
" />
<path d="M11.3667 9.9343
L11.4667 9.9343
" />
<path d="M11.4667 9.9343
L11.5333 9.9676
" />
<path d="M11.5333 9.9676
L11.5667 10.0009
" />
<path d="M11.5667 10.0009
L11.6000 10.0676
" />
<path d="M11.6000 10.0676
L11.6000 10.2343
" />
<path d="M11.6000 10.2343
L11.5667 10.3009
" />
<path d="M11.5667 10.3009
L11.5333 10.3343
" />
<path d="M11.5333 10.3343
L11.4667 10.3676
" />
<path d="M11.4667 10.3676
L11.2667 10.3676
" />
<path d="M11.2667 10.3676
L11.2000 10.3343
" />
<path d="M11.2000 10.3343
L11.1667 10.3009
" />
</g><g transform="rotate(-90.000000 14.0500 10.0500)">
<text x="14.0500" y="10.4000"
textLength="2.7867" font-size="0.9333" lengthAdjust="spacingAndGlyphs"
text-anchor="middle" opacity="0" stroke-opacity="0">10uF</text>
</g>
<g class="stroked-text"><desc>10uF</desc>
<path d="M14.3676 10.8000
L14.3676 11.2000
" />
<path d="M14.3676 11.0000
L13.6676 11.0000
" />
<path d="M13.6676 11.0000
L13.7676 11.0667
" />
<path d="M13.7676 11.0667
L13.8343 11.1333
" />
<path d="M13.8343 11.1333
L13.8676 11.2000
" />
<path d="M13.6676 10.3667
L13.6676 10.3000
" />
<path d="M13.6676 10.3000
L13.7009 10.2333
" />
<path d="M13.7009 10.2333
L13.7343 10.2000
" />
<path d="M13.7343 10.2000
L13.8009 10.1667
" />
<path d="M13.8009 10.1667
L13.9343 10.1333
" />
<path d="M13.9343 10.1333
L14.1009 10.1333
" />
<path d="M14.1009 10.1333
L14.2343 10.1667
" />
<path d="M14.2343 10.1667
L14.3009 10.2000
" />
<path d="M14.3009 10.2000
L14.3343 10.2333
" />
<path d="M14.3343 10.2333
L14.3676 10.3000
" />
<path d="M14.3676 10.3000
L14.3676 10.3667
" />
<path d="M14.3676 10.3667
L14.3343 10.4333
" />
<path d="M14.3343 10.4333
L14.3009 10.4667
" />
<path d="M14.3009 10.4667
L14.2343 10.5000
" />
<path d="M14.2343 10.5000
L14.1009 10.5333
" />
<path d="M14.1009 10.5333
L13.9343 10.5333
" />
<path d="M13.9343 10.5333
L13.8009 10.5000
" />
<path d="M13.8009 10.5000
L13.7343 10.4667
" />
<path d="M13.7343 10.4667
L13.7009 10.4333
" />
<path d="M13.7009 10.4333
L13.6676 10.3667
" />
<path d="M13.9009 9.5333
L14.3676 9.5333
" />
<path d="M13.9009 9.8333
L14.2676 9.8333
" />
<path d="M14.2676 9.8333
L14.3343 9.8000
" />
<path d="M14.3343 9.8000
L14.3676 9.7333
" />
<path d="M14.3676 9.7333
L14.3676 9.6333
" />
<path d="M14.3676 9.6333
L14.3343 9.5667
" />
<path d="M14.3343 9.5667
L14.3009 9.5333
" />
<path d="M14.0009 8.9667
L14.0009 9.2000
" />
<path d="M14.3676 9.2000
L13.6676 9.2000
" />
<path d="M13.6676 9.2000
L13.6676 8.8667
" />
</g><path d="M2.9500 8.2500
L7.1500 8.2500
" />
<path d="M7.1500 5.8500
L2.9500 5.8500
" />
<path d="M2.9500 5.8500 A1.9010 1.9010 0.0 0 0 2.9500 8.2500" />
<path d="M7.1500 8.2500 A1.8501 1.8501 0.0 0 0 7.1500 5.8500" />
<path d="M8.9500 8.2500
L13.1500 8.2500
" />
<path d="M13.1500 5.8500
L8.9500 5.8500
" />
<path d="M8.9500 5.8500 A1.8501 1.8501 0.0 0 0 8.9500 8.2500" />
<path d="M13.1500 8.2500 A1.9010 1.9010 0.0 0 0 13.1500 5.8500" />
<path d="M4.4500 11.4500
L4.4500 16.6500
" />
<path d="M4.4500 16.6500
L9.6500 16.6500
" />
<path d="M9.6500 11.4500
L4.4500 11.4500
" />
<path d="M9.6500 16.6500
L9.6500 11.4500
" />
<path d="M2.9500 11.2500
L7.1500 11.2500
" />
<path d="M7.1500 8.8500
L2.9500 8.8500
" />
<path d="M2.9500 8.8500 A1.9010 1.9010 0.0 0 0 2.9500 11.2500" />
<path d="M7.1500 11.2500 A1.8501 1.8501 0.0 0 0 7.1500 8.8500" />
<path d="M8.9500 11.2500
L13.1500 11.2500
" />
<path d="M13.1500 8.8500
L8.9500 8.8500
" />
<path d="M8.9500 8.8500 A1.8501 1.8501 0.0 0 0 8.9500 11.2500" />
<path d="M13.1500 11.2500 A1.9010 1.9010 0.0 0 0 13.1500 8.8500" />
<path d="M3.6400 2.2200
L3.6400 4.8800
" />
<path d="M8.7800 2.2200
L3.6400 2.2200
" />
<path d="M8.7800 2.2200
L8.7800 4.8800
" />
<path d="M8.7800 4.8800
L3.6400 4.8800
" />
<path d="M10.0500 2.2200
L11.3800 2.2200
" />
<path d="M11.3800 2.2200
L11.3800 3.5500
" />
</g> 
</svg>
